<?xml version="1.0" encoding="UTF-8"?>
<svg version="1.1" xmlns="http://www.w3.org/2000/svg" width="209" height="203">
<path d="M0 0 C68.97 0 137.94 0 209 0 C209 66.99 209 133.98 209 203 C140.03 203 71.06 203 0 203 C0 136.01 0 69.02 0 0 Z " fill="#16253A" transform="translate(0,0)"/>
<path d="M0 0 C1.65 0 3.3 0 5 0 C5 66 5 132 5 200 C71 200 137 200 205 200 C205 134 205 68 205 0 C206.32 0 207.64 0 209 0 C209 66.99 209 133.98 209 203 C140.03 203 71.06 203 0 203 C0 136.01 0 69.02 0 0 Z " fill="#0E0E0E" transform="translate(0,0)"/>
</svg>
