<?xml version="1.0" encoding="UTF-8"?>
<svg version="1.1" xmlns="http://www.w3.org/2000/svg" width="204" height="196">
<path d="M0 0 C67.32 0 134.64 0 204 0 C204 64.68 204 129.36 204 196 C136.68 196 69.36 196 0 196 C0 131.32 0 66.64 0 0 Z " fill="#0E728E" transform="translate(0,0)"/>
<path d="M0 0 C0.66 0 1.32 0 2 0 C2 1.98 2 3.96 2 6 C3.98 5.34 5.96 4.68 8 4 C8 4.66 8 5.32 8 6 C9.65 6 11.3 6 13 6 C13.33 5.01 13.66 4.02 14 3 C16.64 3.66 19.28 4.32 22 5 C17.22888084 8.18074611 12.8943734 8.13777008 7.25 8.125 C6.10015625 8.12757813 4.9503125 8.13015625 3.765625 8.1328125 C1 8 1 8 0 7 C-0.04092937 4.66702567 -0.04241723 2.33294775 0 0 Z M-1 8 C0.04255319 13.21276596 0.04255319 13.21276596 0 16 C-1.75 18.5 -1.75 18.5 -4 20 C-4.99 20 -5.98 20 -7 20 C-7.28875 19.360625 -7.5775 18.72125 -7.875 18.0625 C-8.82823451 15.84793921 -8.82823451 15.84793921 -11 15 C-11 13.02 -11 11.04 -11 9 C-7.78548731 7.39274365 -4.56387464 7.94251815 -1 8 Z " fill="#1E7F9C" transform="translate(67,123)"/>
<path d="M0 0 C0.33 0 0.66 0 1 0 C2.40692958 3.78112324 3.45030866 6.94722204 3 11 C0.34884159 13.65115841 -1.51389959 13.39072791 -5.125 13.65625 C-7.23902286 13.86035366 -7.23902286 13.86035366 -9 16 C-11.1640625 16.4140625 -11.1640625 16.4140625 -13.625 16.625 C-14.44226563 16.69976562 -15.25953125 16.77453125 -16.1015625 16.8515625 C-16.72804688 16.90054688 -17.35453125 16.94953125 -18 17 C-18 16.34 -18 15.68 -18 15 C-17.44570312 14.82984375 -16.89140625 14.6596875 -16.3203125 14.484375 C-11.74877023 13.09174014 -11.74877023 13.09174014 -8.5 9.8125 C-8.335 9.214375 -8.17 8.61625 -8 8 C-10.97 7.505 -10.97 7.505 -14 7 C-14.33 6.01 -14.66 5.02 -15 4 C-14.40832031 3.95101562 -13.81664062 3.90203125 -13.20703125 3.8515625 C-6.05246809 3.40785366 -6.05246809 3.40785366 0 0 Z " fill="#228DA7" transform="translate(144,105)"/>
<path d="M0 0 C-0.33 1.32 -0.66 2.64 -1 4 C-3.97 4.66 -6.94 5.32 -10 6 C-9.87625 7.3921875 -9.87625 7.3921875 -9.75 8.8125 C-10 12 -10 12 -12 13.875 C-12.99 14.431875 -12.99 14.431875 -14 15 C-13.814375 14.401875 -13.62875 13.80375 -13.4375 13.1875 C-12.77906313 10.83591238 -12.77906313 10.83591238 -14 8 C-16.31 8 -18.62 8 -21 8 C-21.33 5.36 -21.66 2.72 -22 0 C-21.20335938 0.01160156 -20.40671875 0.02320313 -19.5859375 0.03515625 C-13.36985456 0.08809126 -5.821231 -2.0150415 0 0 Z " fill="#096B8A" transform="translate(90,132)"/>
<path d="M0 0 C0 1.32 0 2.64 0 4 C3.37503669 2.8141763 5.64722731 1.72426311 8 -1 C8.66 -0.67 9.32 -0.34 10 0 C7.62100181 4.84610742 7.62100181 4.84610742 5 7 C1.53665592 7.70792957 -1.70288556 7.87426054 -5.234375 7.9296875 C-7.90958877 7.67995314 -7.90958877 7.67995314 -9 9 C-10.66617115 9.04063832 -12.33388095 9.042721 -14 9 C-12.53892216 3.52095808 -12.53892216 3.52095808 -10.125 1.1875 C-6.4197088 -0.88310391 -4.0703641 -1.30833132 0 0 Z " fill="#1686A3" transform="translate(36,35)"/>
<path d="M0 0 C1.14023098 3.42069294 1.12770913 4.61687262 0 8 C-2.5625 10.8125 -2.5625 10.8125 -5 13 C-0.06475055 13.69889153 4.09861675 14.18821412 9 13 C9.66 13.33 10.32 13.66 11 14 C9.81640625 15.9765625 9.81640625 15.9765625 8 18 C5.58984375 18.4609375 5.58984375 18.4609375 2.9375 18.375 C2.05964844 18.36210938 1.18179687 18.34921875 0.27734375 18.3359375 C-2 18 -2 18 -4 16 C-5.98821313 15.60235737 -7.98944339 15.26224651 -10 15 C-10.33 13.68 -10.66 12.36 -11 11 C-10.45730469 10.54109375 -9.91460938 10.0821875 -9.35546875 9.609375 C-8.64003906 8.99578125 -7.92460937 8.3821875 -7.1875 7.75 C-6.47980469 7.14671875 -5.77210937 6.5434375 -5.04296875 5.921875 C-3.08110329 4.07629602 -1.54330375 2.20054668 0 0 Z " fill="#238BA8" transform="translate(29,105)"/>
<path d="M0 0 C0.66 0.99 1.32 1.98 2 3 C4.42521494 3.58189266 4.42521494 3.58189266 7.125 3.6875 C8.49011719 3.78611328 8.49011719 3.78611328 9.8828125 3.88671875 C10.58148438 3.92410156 11.28015625 3.96148437 12 4 C12 4.33 12 4.66 12 5 C9.36 5.66 6.72 6.32 4 7 C3.67 9.64 3.34 12.28 3 15 C4.093125 14.938125 5.18625 14.87625 6.3125 14.8125 C10 15 10 15 11.9375 16.5 C12.4634375 17.2425 12.4634375 17.2425 13 18 C11.24135754 20.1793144 10.30604 20.93686419 7.51953125 21.51171875 C6.62621094 21.56972656 5.73289062 21.62773437 4.8125 21.6875 C3.91144531 21.75324219 3.01039062 21.81898438 2.08203125 21.88671875 C1.39496094 21.92410156 0.70789063 21.96148437 0 22 C0.33 21.01 0.66 20.02 1 19 C1.66 18.67 2.32 18.34 3 18 C2.67 17.67 2.34 17.34 2 17 C1.92820036 15.48071962 1.91607993 13.95832518 1.9375 12.4375 C1.94652344 11.61121094 1.95554687 10.78492188 1.96484375 9.93359375 C1.97644531 9.29550781 1.98804687 8.65742188 2 8 C1.34 8 0.68 8 0 8 C-0.33 6.68 -0.66 5.36 -1 4 C-3.31 3.67 -5.62 3.34 -8 3 C-2 0 -2 0 0 0 Z " fill="#0B6886" transform="translate(90,145)"/>
<path d="M0 0 C0.66 1.98 1.32 3.96 2 6 C-2.04121906 8.69414604 -5.25370575 8.5569631 -10 8 C-13.5625 6.5 -13.5625 6.5 -16 5 C-16 4.34 -16 3.68 -16 3 C-10.28264895 0.54970669 -6.20970773 -0.33266291 0 0 Z " fill="#19859F" transform="translate(100,74)"/>
<path d="M0 0 C-0.33 0.66 -0.66 1.32 -1 2 C-0.34 2.33 0.32 2.66 1 3 C0.67 4.32 0.34 5.64 0 7 C-1.27875 7.144375 -2.5575 7.28875 -3.875 7.4375 C-6.25692894 7.70642746 -7.84452691 7.92226346 -10 9 C-9.49396008 6.83125748 -9.00016187 5.00032373 -8 3 C-13.28 2.67 -18.56 2.34 -24 2 C-24.33 2.66 -24.66 3.32 -25 4 C-25 1 -25 1 -24 0 C-20.55582918 -0.38212329 -17.08602993 -0.47016445 -13.625 -0.625 C-12.65304688 -0.6765625 -11.68109375 -0.728125 -10.6796875 -0.78125 C-9.74640625 -0.82507813 -8.813125 -0.86890625 -7.8515625 -0.9140625 C-6.99385254 -0.9548291 -6.13614258 -0.9955957 -5.25244141 -1.03759766 C-3 -1 -3 -1 0 0 Z " fill="#288AA0" transform="translate(158,171)"/>
<path d="M0 0 C0.33 1.65 0.66 3.3 1 5 C1.33 4.34 1.66 3.68 2 3 C2.66 3 3.32 3 4 3 C3.25 7.75 3.25 7.75 1 10 C-1.625 10.125 -1.625 10.125 -4 10 C-4 9.34 -4 8.68 -4 8 C-5.32 8 -6.64 8 -8 8 C-8 6.35 -8 4.7 -8 3 C-7.34 3 -6.68 3 -6 3 C-6 2.34 -6 1.68 -6 1 C-4 0 -4 0 0 0 Z M-13 9 C-11.68 9.33 -10.36 9.66 -9 10 C-10.32 11.32 -11.64 12.64 -13 14 C-13 12.35 -13 10.7 -13 9 Z " fill="#228FB2" transform="translate(15,68)"/>
<path d="M0 0 C2.64 0 5.28 0 8 0 C6.83010177 9.14965185 6.83010177 9.14965185 3.4375 12.625 C1 14 1 14 0 14 C0 9.38 0 4.76 0 0 Z " fill="#1B809E" transform="translate(2,164)"/>
<path d="M0 0 C1.61949011 2.57213134 2.04408751 3.67669159 1.625 6.75 C1.41875 7.4925 1.2125 8.235 1 9 C-5.15234375 9.09765625 -5.15234375 9.09765625 -7 9 C-8 8 -8 8 -8.3125 5.625 C-8 3 -8 3 -6.25 1.1875 C-4 0 -4 0 0 0 Z " fill="#106E88" transform="translate(65,122)"/>
<path d="M0 0 C2.31 0 4.62 0 7 0 C7 3.74876504 6.45321644 5.16346849 4 8 C-0.59267281 8.51029698 -4.04476738 8.63682175 -8 6 C-6.20963542 5.0234375 -4.41927083 4.046875 -2.62890625 3.0703125 C-0.83381685 2.08589976 -0.83381685 2.08589976 0 0 Z " fill="#02667D" transform="translate(21,47)"/>
<path d="M0 0 C0.33 0.66 0.66 1.32 1 2 C1.66 2 2.32 2 3 2 C5.125 7.625 5.125 7.625 4 11 C3.01 10.67 2.02 10.34 1 10 C0.67 8.68 0.34 7.36 0 6 C-2.31 7.98 -4.62 9.96 -7 12 C-7.66 11.67 -8.32 11.34 -9 11 C-8.06981474 9.53699018 -7.13055973 8.07974421 -6.1875 6.625 C-5.66542969 5.81289062 -5.14335938 5.00078125 -4.60546875 4.1640625 C-3 2 -3 2 0 0 Z " fill="#208DA8" transform="translate(44,153)"/>
<path d="M0 0 C0 2.97 0 5.94 0 9 C-6.8359375 9.1953125 -6.8359375 9.1953125 -9 9 C-9.66 8.34 -10.32 7.68 -11 7 C-9.36432763 3.54691388 -8.51610783 2.22118907 -4.9375 0.6875 C-2 0 -2 0 0 0 Z " fill="#2D90AD" transform="translate(185,141)"/>
<path d="M0 0 C0.66 2.97 1.32 5.94 2 9 C-0.40545638 10.20272819 -1.94996953 10.10071472 -4.625 10.0625 C-5.85089844 10.04896484 -5.85089844 10.04896484 -7.1015625 10.03515625 C-8.04128906 10.01775391 -8.04128906 10.01775391 -9 10 C-3.52830189 0 -3.52830189 0 0 0 Z " fill="#0B6881" transform="translate(86,31)"/>
<path d="M0 0 C-1.26213042 3.78639125 -2.65345351 4.04104596 -6 6 C-6.99 7.485 -6.99 7.485 -8 9 C-6.9275 8.95875 -5.855 8.9175 -4.75 8.875 C-1.34252515 8.9885825 0.20739631 9.21273364 3 11 C2 12 2 12 -0.50390625 12.09765625 C-2.01791016 12.08025391 -2.01791016 12.08025391 -3.5625 12.0625 C-4.57441406 12.05347656 -5.58632812 12.04445313 -6.62890625 12.03515625 C-7.41136719 12.02355469 -8.19382812 12.01195312 -9 12 C-9.12375 11.360625 -9.2475 10.72125 -9.375 10.0625 C-9.58125 9.381875 -9.7875 8.70125 -10 8 C-10.66 7.67 -11.32 7.34 -12 7 C-10.90081184 6.01524786 -9.7954398 5.03739527 -8.6875 4.0625 C-8.07261719 3.51722656 -7.45773438 2.97195312 -6.82421875 2.41015625 C-4.61153083 0.69970584 -2.81130321 0 0 0 Z " fill="#08637F" transform="translate(115,40)"/>
<path d="M0 0 C5.75731895 2.44992296 5.75731895 2.44992296 6.9375 5.125 C6.958125 5.74375 6.97875 6.3625 7 7 C5.12175109 8.87824891 1.96064724 8.39102397 -0.5625 8.5625 C-1.76003906 8.64628906 -2.95757812 8.73007813 -4.19140625 8.81640625 C-5.11824219 8.87699219 -6.04507813 8.93757813 -7 9 C-7.33 7.35 -7.66 5.7 -8 4 C-7.01 4.33 -6.02 4.66 -5 5 C-5 5.33 -5 5.66 -5 6 C-3.35 6.33 -1.7 6.66 0 7 C0 4.69 0 2.38 0 0 Z " fill="#076684" transform="translate(81,88)"/>
<path d="M0 0 C3 1 3 1 4.375 3.3125 C5 6 5 6 4 8.3125 C2 10 2 10 -1.1875 10.25 C-2.115625 10.1675 -3.04375 10.085 -4 10 C-4.41176754 6.39703406 -4.1535853 5.21597933 -2 2.1875 C-1.34 1.465625 -0.68 0.74375 0 0 Z " fill="#188BA8" transform="translate(68,29)"/>
<path d="M0 0 C1.98 0 3.96 0 6 0 C5.50659631 6.41424802 5.50659631 6.41424802 3 9.3125 C2.34 9.869375 1.68 10.42625 1 11 C0.67 11.66 0.34 12.32 0 13 C-0.99 12.67 -1.98 12.34 -3 12 C-2.67 10.02 -2.34 8.04 -2 6 C-0.68 5.67 0.64 5.34 2 5 C2 4.34 2 3.68 2 3 C1.34 3 0.68 3 0 3 C0 2.01 0 1.02 0 0 Z " fill="#2888A7" transform="translate(78,1)"/>
<path d="M0 0 C2.97 0 5.94 0 9 0 C8.67 1.32 8.34 2.64 8 4 C6.68 4.33 5.36 4.66 4 5 C4 5.99 4 6.98 4 8 C2.68 8.33 1.36 8.66 0 9 C0 6.03 0 3.06 0 0 Z " fill="#349BB6" transform="translate(185,1)"/>
<path d="M0 0 C2.625 -0.1875 2.625 -0.1875 5 0 C5 1.98 5 3.96 5 6 C0.38 6.33 -4.24 6.66 -9 7 C-9 6.01 -9 5.02 -9 4 C-7.88625 3.896875 -6.7725 3.79375 -5.625 3.6875 C-4.42875 3.460625 -3.2325 3.23375 -2 3 C-1.34 2.01 -0.68 1.02 0 0 Z " fill="#20819F" transform="translate(11,135)"/>
<path d="M0 0 C0.80967438 2.91482778 1.21845993 4.46113217 0.0625 7.3125 C-0.288125 7.869375 -0.63875 8.42625 -1 9 C-2.32 9 -3.64 9 -5 9 C-5.28875 8.38125 -5.5775 7.7625 -5.875 7.125 C-6.93720042 4.86674235 -6.93720042 4.86674235 -9 3 C-5.55930376 0.70620251 -4.27709699 0 0 0 Z " fill="#3698B5" transform="translate(77,109)"/>
<path d="M0 0 C3.50519182 3.89465758 3.32312277 7.82570311 3.30078125 12.79296875 C3 15 3 15 1 17 C0.01 16.67 -0.98 16.34 -2 16 C-1.01 15.67 -0.02 15.34 1 15 C0.67 14.01 0.34 13.02 0 12 C-0.12781786 9.32605036 -0.04391871 6.67904143 0 4 C-1.65 4 -3.3 4 -5 4 C-5 3.01 -5 2.02 -5 1 C-3 0 -3 0 0 0 Z " fill="#0A6B86" transform="translate(160,149)"/>
<path d="M0 0 C6.0546875 -0.1953125 6.0546875 -0.1953125 8 0 C8.66 0.66 9.32 1.32 10 2 C10.33 1.34 10.66 0.68 11 0 C12.65 0.33 14.3 0.66 16 1 C16 1.99 16 2.98 16 4 C14.741875 4.103125 13.48375 4.20625 12.1875 4.3125 C9.39500343 4.64858808 8.25566879 4.80025876 6 6.5625 C5.67 7.036875 5.34 7.51125 5 8 C5 6.35 5 4.7 5 3 C2.525 2.01 2.525 2.01 0 1 C0 0.67 0 0.34 0 0 Z " fill="#066582" transform="translate(160,76)"/>
<path d="M0 0 C0.33 0 0.66 0 1 0 C1.125 2.375 1.125 2.375 1 5 C-1.65115841 7.65115841 -3.51389959 7.39072791 -7.125 7.65625 C-9.23902286 7.86035366 -9.23902286 7.86035366 -11 10 C-13.1640625 10.4140625 -13.1640625 10.4140625 -15.625 10.625 C-16.44226563 10.69976562 -17.25953125 10.77453125 -18.1015625 10.8515625 C-18.72804688 10.90054688 -19.35453125 10.94953125 -20 11 C-20 10.34 -20 9.68 -20 9 C-19.36191406 8.79503906 -18.72382812 8.59007813 -18.06640625 8.37890625 C-17.24011719 8.10949219 -16.41382813 7.84007813 -15.5625 7.5625 C-14.73878906 7.29566406 -13.91507813 7.02882813 -13.06640625 6.75390625 C-11.03780412 6.17844506 -11.03780412 6.17844506 -10 5 C-8.31816052 4.76712992 -6.6287584 4.58735834 -4.9375 4.4375 C-3.55884766 4.31181641 -3.55884766 4.31181641 -2.15234375 4.18359375 C-1.44207031 4.12300781 -0.73179687 4.06242187 0 4 C0 2.68 0 1.36 0 0 Z " fill="#19829E" transform="translate(146,111)"/>
<path d="M0 0 C0 1.32 0 2.64 0 4 C0.66 4.33 1.32 4.66 2 5 C-1.3 5 -4.6 5 -8 5 C-8.33 3.68 -8.66 2.36 -9 1 C-5.57367167 -0.61798838 -3.61944899 -1.34053666 0 0 Z " fill="#2393AF" transform="translate(36,35)"/>
<path d="M0 0 C2.31 0 4.62 0 7 0 C7 1.98 7 3.96 7 6 C5.35 6.66 3.7 7.32 2 8 C0 6 0 6 -0.125 2.875 C-0.08375 1.92625 -0.0425 0.9775 0 0 Z " fill="#2A8EAE" transform="translate(58,133)"/>
<path d="M0 0 C1.67542976 0.28604898 3.34385343 0.61781233 5 1 C5 1.66 5 2.32 5 3 C5.66 3 6.32 3 7 3 C6.34 4.65 5.68 6.3 5 8 C0.125 7.125 0.125 7.125 -1 6 C-1.125 3.5 -1.125 3.5 -1 1 C-0.67 0.67 -0.34 0.34 0 0 Z " fill="#1E8DA4" transform="translate(43,79)"/>
<path d="M0 0 C0.33 0 0.66 0 1 0 C1 1.98 1 3.96 1 6 C-2.3 6 -5.6 6 -9 6 C-9.33 5.34 -9.66 4.68 -10 4 C-9.67 3.34 -9.34 2.68 -9 2 C-7.1875 1.62109375 -7.1875 1.62109375 -5 1.4375 C-2.21067942 1.37334592 -2.21067942 1.37334592 0 0 Z " fill="#2190AC" transform="translate(99,74)"/>
<path d="M0 0 C0.79921875 0.00902344 1.5984375 0.01804688 2.421875 0.02734375 C3.02515625 0.03894531 3.6284375 0.05054688 4.25 0.0625 C0.8147952 2.35263653 -0.735331 2.24092973 -4.75 2.0625 C-4.42 4.0425 -4.09 6.0225 -3.75 8.0625 C-5.4 8.0625 -7.05 8.0625 -8.75 8.0625 C-8.75 5.7525 -8.75 3.4425 -8.75 1.0625 C-5.75519083 0.1901588 -3.11424089 -0.04579766 0 0 Z " fill="#1E86A3" transform="translate(102.75,150.9375)"/>
<path d="M0 0 C0.66 0.33 1.32 0.66 2 1 C1.01 1.66 0.02 2.32 -1 3 C-0.67 2.01 -0.34 1.02 0 0 Z M-9 3 C-5.37 3 -1.74 3 2 3 C2.33 4.98 2.66 6.96 3 9 C2.43796875 8.68289062 1.8759375 8.36578125 1.296875 8.0390625 C-1.15196317 6.93125475 -3.08387855 6.61024601 -5.75 6.375 C-6.54921875 6.30023438 -7.3484375 6.22546875 -8.171875 6.1484375 C-8.77515625 6.09945312 -9.3784375 6.05046875 -10 6 C-9.67 5.01 -9.34 4.02 -9 3 Z " fill="#056787" transform="translate(93,99)"/>
<path d="M0 0 C4.455 0.99 4.455 0.99 9 2 C3.91343522 5.39104319 -1.99338579 5.66365213 -8 5 C-8.99 4.34 -9.98 3.68 -11 3 C-9.02 2.34 -7.04 1.68 -5 1 C-5 1.66 -5 2.32 -5 3 C-3.35 3 -1.7 3 0 3 C0 2.01 0 1.02 0 0 Z " fill="#2684A2" transform="translate(80,126)"/>
<path d="M0 0 C2.76276177 0.52268466 5.3260876 1.10869587 8 2 C7.67 3.32 7.34 4.64 7 6 C1.375 6.25 1.375 6.25 -2 4 C-1.34 2.68 -0.68 1.36 0 0 Z " fill="#2487A4" transform="translate(108,105)"/>
<path d="M0 0 C2 3 2 3 1.625 5.6875 C1.41875 6.450625 1.2125 7.21375 1 8 C-2.05263664 8.98120464 -3.94736336 8.98120464 -7 8 C-5.50902342 4.2047869 -3.24299151 2.38957269 0 0 Z " fill="#2C8FAE" transform="translate(181,168)"/>
<path d="M0 0 C0.33 0 0.66 0 1 0 C1 1.98 1 3.96 1 6 C1.99 5.67 2.98 5.34 4 5 C3.34 6.32 2.68 7.64 2 9 C-0.31 8.67 -2.62 8.34 -5 8 C-3.6299034 5.0490227 -2.06764583 2.51713405 0 0 Z " fill="#268DAB" transform="translate(194,97)"/>
<path d="M0 0 C1.69752187 0.25245197 3.38471545 0.57645775 5.0625 0.9375 C5.98160156 1.13214844 6.90070313 1.32679687 7.84765625 1.52734375 C8.91306641 1.76130859 8.91306641 1.76130859 10 2 C6.99754796 4.62370236 5.22853212 5.36302348 1.25 5.1875 C0.05117187 5.14689453 0.05117187 5.14689453 -1.171875 5.10546875 C-1.77515625 5.07066406 -2.3784375 5.03585938 -3 5 C-1.125 1.125 -1.125 1.125 0 0 Z " fill="#0A6B89" transform="translate(82,120)"/>
<path d="M0 0 C1.32 0.33 2.64 0.66 4 1 C3.67 1.66 3.34 2.32 3 3 C3.94875 2.95875 4.8975 2.9175 5.875 2.875 C9 3 9 3 11 5 C8.3125 6.1875 8.3125 6.1875 5 7 C2.125 5.875 2.125 5.875 0 4 C0 2.68 0 1.36 0 0 Z " fill="#096078" transform="translate(86,1)"/>
<path d="M0 0 C0.66 0.33 1.32 0.66 2 1 C1.67 3.31 1.34 5.62 1 8 C3.31 8 5.62 8 8 8 C7.67 8.66 7.34 9.32 7 10 C-0.42857143 10.28571429 -0.42857143 10.28571429 -4 8 C-3.34 6.68 -2.68 5.36 -2 4 C-1.34 4 -0.68 4 0 4 C0 2.68 0 1.36 0 0 Z " fill="#06607C" transform="translate(48,1)"/>
<path d="M0 0 C0.66 0.33 1.32 0.66 2 1 C2 2.65 2 4.3 2 6 C2.99 6 3.98 6 5 6 C5.33 5.34 5.66 4.68 6 4 C5.67 5.32 5.34 6.64 5 8 C3.02 8 1.04 8 -1 8 C-1.66 6.68 -2.32 5.36 -3 4 C-2.01 2.68 -1.02 1.36 0 0 Z " fill="#2687A4" transform="translate(83,138)"/>
<path d="M0 0 C2.31 0 4.62 0 7 0 C7.28875 0.639375 7.5775 1.27875 7.875 1.9375 C8.82823451 4.15206079 8.82823451 4.15206079 11 5 C11 4.01 11 3.02 11 2 C12.65 1.34 14.3 0.68 16 0 C14.3125 3 14.3125 3 12 6 C9.25 6.375 9.25 6.375 7 6 C6.67 5.34 6.34 4.68 6 4 C4.02477154 2.95191959 2.02518491 1.9479589 0 1 C0 0.67 0 0.34 0 0 Z " fill="#207796" transform="translate(154,39)"/>
<path d="M0 0 C1.4540625 0.0309375 1.4540625 0.0309375 2.9375 0.0625 C3.2675 1.7125 3.5975 3.3625 3.9375 5.0625 C1.6275 5.0625 -0.6825 5.0625 -3.0625 5.0625 C-3.625 3.125 -3.625 3.125 -4.0625 1.0625 C-3.0625 0.0625 -3.0625 0.0625 0 0 Z " fill="#065E78" transform="translate(62.0625,124.9375)"/>
<path d="M0 0 C0.33 2.31 0.66 4.62 1 7 C-0.32 7.33 -1.64 7.66 -3 8 C-3.12375 7.360625 -3.2475 6.72125 -3.375 6.0625 C-3.684375 5.0415625 -3.684375 5.0415625 -4 4 C-4.66 3.67 -5.32 3.34 -6 3 C-3.375 0 -3.375 0 0 0 Z " fill="#2489A3" transform="translate(41,124)"/>
<path d="M0 0 C1.17949219 0.10183594 2.35898438 0.20367187 3.57421875 0.30859375 C4.47785156 0.39238281 5.38148438 0.47617188 6.3125 0.5625 C5.673125 0.68625 5.03375 0.81 4.375 0.9375 C3.694375 1.14375 3.01375 1.35 2.3125 1.5625 C1.9825 2.2225 1.6525 2.8825 1.3125 3.5625 C1.3125 2.9025 1.3125 2.2425 1.3125 1.5625 C0.6525 1.5625 -0.0075 1.5625 -0.6875 1.5625 C-0.3575 2.5525 -0.0275 3.5425 0.3125 4.5625 C-0.6775 5.0575 -0.6775 5.0575 -1.6875 5.5625 C-2.55375 4.881875 -2.55375 4.881875 -3.4375 4.1875 C-5.4675333 2.72136484 -7.42289843 1.61392216 -9.6875 0.5625 C-6.14075997 -0.61974668 -3.71227005 -0.33079634 0 0 Z " fill="#096582" transform="translate(153.6875,74.4375)"/>
<path d="M0 0 C-0.165 0.598125 -0.33 1.19625 -0.5 1.8125 C-1.1114124 4.11344336 -1.1114124 4.11344336 -1 7 C-3.31 7 -5.62 7 -8 7 C-8.33 6.34 -8.66 5.68 -9 5 C-3.375 0 -3.375 0 0 0 Z " fill="#1E809C" transform="translate(177,143)"/>
<path d="M0 0 C0.33 0 0.66 0 1 0 C1.27243747 5.99362431 0.0005522 9.51938154 -4 14 C-4.99 14 -5.98 14 -7 14 C-6.67 13.01 -6.34 12.02 -6 11 C-5.34 10.67 -4.68 10.34 -4 10 C-3.38833807 8.17696338 -3.38833807 8.17696338 -3 6.0625 C-2.39617423 3.09189285 -2.21308826 2.21308826 0 0 Z " fill="#1180A2" transform="translate(19,89)"/>
<path d="M0 0 C0 0.66 0 1.32 0 2 C-5.07476794 3.26305335 -9.72796354 4.27036084 -15 4 C-15 3.01 -15 2.02 -15 1 C-12.8750734 0.83240016 -10.75005624 0.66594799 -8.625 0.5 C-7.44164062 0.4071875 -6.25828125 0.314375 -5.0390625 0.21875 C-3.36213157 0.09804546 -1.68126944 0 0 0 Z " fill="#1B7D9D" transform="translate(202,13)"/>
<path d="M0 0 C4.29 0 8.58 0 13 0 C13 0.66 13 1.32 13 2 C11.86111328 2.07347656 11.86111328 2.07347656 10.69921875 2.1484375 C9.70535156 2.22320312 8.71148437 2.29796875 7.6875 2.375 C6.20830078 2.47941406 6.20830078 2.47941406 4.69921875 2.5859375 C1.78471567 2.83865472 1.78471567 2.83865472 -1 5 C-0.67 3.35 -0.34 1.7 0 0 Z " fill="#1E7F9D" transform="translate(161,174)"/>
<path d="M0 0 C2 1 2 1 2 1 Z M-2 1 C-1.01 1.33 -0.02 1.66 1 2 C0.91253716 3.43861294 0.80434652 4.87597508 0.6875 6.3125 C0.62949219 7.11300781 0.57148437 7.91351563 0.51171875 8.73828125 C-0.09070745 11.40091309 -0.87450445 12.33294467 -3 14 C-5.1875 14.6875 -5.1875 14.6875 -7 15 C-6 12 -6 12 -3.9375 10.8125 C-2.9784375 10.4103125 -2.9784375 10.4103125 -2 10 C-2.185625 8.700625 -2.37125 7.40125 -2.5625 6.0625 C-2.87890625 3.84765625 -2.87890625 3.84765625 -3 2 C-2.67 1.67 -2.34 1.34 -2 1 Z " fill="#187997" transform="translate(49,65)"/>
<path d="M0 0 C-1.19899698 3.0831351 -2.47700477 6.06279492 -4 9 C-4 7.68 -4 6.36 -4 5 C-5.98 5 -7.96 5 -10 5 C-9.67 4.01 -9.34 3.02 -9 2 C-3.21052632 0 -3.21052632 0 0 0 Z " fill="#0E6281" transform="translate(169,43)"/>
<path d="M0 0 C1.32 0 2.64 0 4 0 C4.36923077 6.52307692 4.36923077 6.52307692 2.5 8.9375 C2.005 9.288125 1.51 9.63875 1 10 C0 9 0 9 -0.09765625 6.93359375 C-0.08605469 6.10988281 -0.07445313 5.28617187 -0.0625 4.4375 C-0.05347656 3.61121094 -0.04445313 2.78492188 -0.03515625 1.93359375 C-0.02355469 1.29550781 -0.01195313 0.65742188 0 0 Z " fill="#1784A5" transform="translate(30,1)"/>
<path d="M0 0 C0.33 0 0.66 0 1 0 C1.125 2.375 1.125 2.375 1 5 C-1 7 -1 7 -3.56640625 7.046875 C-4.55511719 6.94890625 -5.54382813 6.8509375 -6.5625 6.75 C-7.55378906 6.66234375 -8.54507812 6.5746875 -9.56640625 6.484375 C-10.36949219 6.32453125 -11.17257812 6.1646875 -12 6 C-12.33 5.34 -12.66 4.68 -13 4 C-9.37 4 -5.74 4 -2 4 C-1.34 2.68 -0.68 1.36 0 0 Z " fill="#0A7186" transform="translate(27,50)"/>
<path d="M0 0 C0 1.65 0 3.3 0 5 C-2.31 5 -4.62 5 -7 5 C-7 3.68 -7 2.36 -7 1 C-4.50935112 0.31292445 -2.62113708 0 0 0 Z " fill="#1E8AA6" transform="translate(15,191)"/>
<path d="M0 0 C0.33 1.32 0.66 2.64 1 4 C-0.27875 4.144375 -1.5575 4.28875 -2.875 4.4375 C-5.25692894 4.70642746 -6.84452691 4.92226346 -9 6 C-8.125 2.125 -8.125 2.125 -7 1 C-4.67182036 0.63239269 -2.3381615 0.29758419 0 0 Z " fill="#22889E" transform="translate(157,174)"/>
<path d="M0 0 C1.2065625 0.0309375 1.2065625 0.0309375 2.4375 0.0625 C3.0975 1.7125 3.7575 3.3625 4.4375 5.0625 C3.1175 6.3825 1.7975 7.7025 0.4375 9.0625 C0.4375 6.7525 0.4375 4.4425 0.4375 2.0625 C-0.8825 1.7325 -2.2025 1.4025 -3.5625 1.0625 C-2.5625 0.0625 -2.5625 0.0625 0 0 Z " fill="#076380" transform="translate(69.5625,40.9375)"/>
<path d="M0 0 C0.99 0.33 1.98 0.66 3 1 C3 3.31 3 5.62 3 8 C2.01 7.67 1.02 7.34 0 7 C-0.33 7.99 -0.66 8.98 -1 10 C-2.15837626 5.94568308 -1.83691257 3.78187881 0 0 Z " fill="#2285A5" transform="translate(102,121)"/>
<path d="M0 0 C1.98 0.99 3.96 1.98 6 3 C5.67 4.32 5.34 5.64 5 7 C3.35 7 1.7 7 0 7 C0 4.69 0 2.38 0 0 Z " fill="#05607B" transform="translate(81,88)"/>
<path d="M0 0 C2.125 0.9375 2.125 0.9375 4 2 C2.35 2.66 0.7 3.32 -1 4 C-1 5.65 -1 7.3 -1 9 C-2.32 8.67 -3.64 8.34 -5 8 C-5 7.01 -5 6.02 -5 5 C-4.34 5 -3.68 5 -3 5 C-2.87625 4.360625 -2.7525 3.72125 -2.625 3.0625 C-2.41875 2.381875 -2.2125 1.70125 -2 1 C-1.34 0.67 -0.68 0.34 0 0 Z " fill="#066683" transform="translate(61,175)"/>
<path d="M0 0 C0.99 0 1.98 0 3 0 C3.33 1.65 3.66 3.3 4 5 C3.01 5.66 2.02 6.32 1 7 C0.34 7.99 -0.32 8.98 -1 10 C-1.9765625 3.9453125 -1.9765625 3.9453125 -2 2 C-1.34 1.34 -0.68 0.68 0 0 Z " fill="#1C7D9D" transform="translate(143,145)"/>
<path d="M0 0 C0 3.69349436 -0.88153908 5.00493457 -3 8 C-5.5 10.375 -5.5 10.375 -8 12 C-8.99 11.67 -9.98 11.34 -11 11 C-10.45730469 10.54109375 -9.91460938 10.0821875 -9.35546875 9.609375 C-8.64003906 8.99578125 -7.92460937 8.3821875 -7.1875 7.75 C-6.47980469 7.14671875 -5.77210937 6.5434375 -5.04296875 5.921875 C-3.08110329 4.07629602 -1.54330375 2.20054668 0 0 Z " fill="#19819F" transform="translate(29,105)"/>
<path d="M0 0 C0.33 0 0.66 0 1 0 C1 3.63 1 7.26 1 11 C0.01 10.67 -0.98 10.34 -2 10 C-2.1953125 3.9453125 -2.1953125 3.9453125 -2 2 C-1.34 1.34 -0.68 0.68 0 0 Z " fill="#208FA8" transform="translate(7,28)"/>
<path d="M0 0 C2.31 0 4.62 0 7 0 C7.33 0.99 7.66 1.98 8 3 C7.01 4.485 7.01 4.485 6 6 C5.01 5.67 4.02 5.34 3 5 C3 4.01 3 3.02 3 2 C2.01 2 1.02 2 0 2 C0 1.34 0 0.68 0 0 Z " fill="#1B83A1" transform="translate(70,141)"/>
<path d="M0 0 C1.22589844 0.01353516 1.22589844 0.01353516 2.4765625 0.02734375 C3.41628906 0.04474609 3.41628906 0.04474609 4.375 0.0625 C4.705 1.7125 5.035 3.3625 5.375 5.0625 C5.045 4.0725 4.715 3.0825 4.375 2.0625 C2.395 2.0625 0.415 2.0625 -1.625 2.0625 C-1.955 2.7225 -2.285 3.3825 -2.625 4.0625 C-2.625 3.4025 -2.625 2.7425 -2.625 2.0625 C-3.615 2.0625 -4.605 2.0625 -5.625 2.0625 C-5.955 2.7225 -6.285 3.3825 -6.625 4.0625 C-6.625 3.0725 -6.625 2.0825 -6.625 1.0625 C-4.21954362 -0.14022819 -2.67503047 -0.03821472 0 0 Z " fill="#076079" transform="translate(55.625,30.9375)"/>
<path d="M0 0 C2.625 0.9375 2.625 0.9375 5 2 C4.67 2.66 4.34 3.32 4 4 C3.01 4 2.02 4 1 4 C0.67 4.99 0.34 5.98 0 7 C-1.32 6.34 -2.64 5.68 -4 5 C-2.25 1.125 -2.25 1.125 0 0 Z " fill="#076685" transform="translate(109,159)"/>
<path d="M0 0 C0.66 0 1.32 0 2 0 C2 2.31 2 4.62 2 7 C0.02 7.99 0.02 7.99 -2 9 C-2.66 8.34 -3.32 7.68 -4 7 C-4 6.34 -4 5.68 -4 5 C-2.68 5 -1.36 5 0 5 C0 3.35 0 1.7 0 0 Z " fill="#177B98" transform="translate(165,134)"/>
<path d="M0 0 C1.4540625 0.0309375 1.4540625 0.0309375 2.9375 0.0625 C3.2675 1.3825 3.5975 2.7025 3.9375 4.0625 C2.9475 4.7225 1.9575 5.3825 0.9375 6.0625 C0.2775 5.0725 -0.3825 4.0825 -1.0625 3.0625 C-2.0525 2.4025 -3.0425 1.7425 -4.0625 1.0625 C-3.0625 0.0625 -3.0625 0.0625 0 0 Z " fill="#1D89A5" transform="translate(173.0625,81.9375)"/>
<path d="M0 0 C0.66 0.33 1.32 0.66 2 1 C1.34 2.65 0.68 4.3 0 6 C0.99 5.67 1.98 5.34 3 5 C3 5.66 3 6.32 3 7 C1.35 7.33 -0.3 7.66 -2 8 C-2.125 5.125 -2.125 5.125 -2 2 C-1.34 1.34 -0.68 0.68 0 0 Z M4 3 C4.66 3.33 5.32 3.66 6 4 C5.01 4 4.02 4 3 4 C3.33 3.67 3.66 3.34 4 3 Z " fill="#16839E" transform="translate(174,61)"/>
<path d="M0 0 C0.99 0.99 1.98 1.98 3 3 C2.34 5.31 1.68 7.62 1 10 C0.34 10 -0.32 10 -1 10 C-1.02689216 8.52093108 -1.04634621 7.04172517 -1.0625 5.5625 C-1.07410156 4.73878906 -1.08570312 3.91507813 -1.09765625 3.06640625 C-1 1 -1 1 0 0 Z " fill="#046282" transform="translate(69,186)"/>
<path d="M0 0 C0.66 0 1.32 0 2 0 C2.33 1.65 2.66 3.3 3 5 C2.01 5.66 1.02 6.32 0 7 C-0.99 6.01 -1.98 5.02 -3 4 C-1.625 2 -1.625 2 0 0 Z " fill="#075F7C" transform="translate(39,94)"/>
<path d="M0 0 C1.4606285 2.64738916 2 3.89448334 2 7 C-0.97 6.505 -0.97 6.505 -4 6 C-2.84826645 3.53199953 -1.95216435 1.95216435 0 0 Z " fill="#1B8EA8" transform="translate(65,79)"/>
<path d="M0 0 C0 0.99 0 1.98 0 3 C-2.97 3 -5.94 3 -9 3 C-9 2.34 -9 1.68 -9 1 C-2.25 -1.125 -2.25 -1.125 0 0 Z " fill="#077189" transform="translate(58,10)"/>
<path d="M0 0 C0.33 0 0.66 0 1 0 C1.04254356 1.99954746 1.04080783 4.00041636 1 6 C0.67 6.33 0.34 6.66 0 7 C0.66 7.66 1.32 8.32 2 9 C-0.4375 8.625 -0.4375 8.625 -3 8 C-3.33 7.34 -3.66 6.68 -4 6 C-3.67 5.34 -3.34 4.68 -3 4 C-2.34 4 -1.68 4 -1 4 C-0.67 2.68 -0.34 1.36 0 0 Z " fill="#1C85A0" transform="translate(38,176)"/>
<path d="M0 0 C0.66 1.98 1.32 3.96 2 6 C1.34 6.66 0.68 7.32 0 8 C0 6.68 0 5.36 0 4 C-1.65 4 -3.3 4 -5 4 C-5 3.01 -5 2.02 -5 1 C-3 0 -3 0 0 0 Z " fill="#065E7D" transform="translate(160,149)"/>
<path d="M0 0 C0.66 0.33 1.32 0.66 2 1 C1.67 2.65 1.34 4.3 1 6 C-0.32 6 -1.64 6 -3 6 C-3 3 -3 3 -1.5 1.3125 C-0.7575 0.6628125 -0.7575 0.6628125 0 0 Z " fill="#17809C" transform="translate(185,109)"/>
<path d="M0 0 C0.66 0.66 1.32 1.32 2 2 C3.98821313 2.39764263 5.98944339 2.73775349 8 3 C5.37801226 5.15377564 3.35595828 6.40072174 0 7 C-1.125 2.25 -1.125 2.25 0 0 Z " fill="#085F7D" transform="translate(194,76)"/>
<path d="M0 0 C0.66 0.66 1.32 1.32 2 2 C-1.01324195 3.50662097 -3.68286377 3.17770373 -7 3 C-7.66 2.34 -8.32 1.68 -9 1 C-5.75778445 -0.08073852 -3.39597063 -0.21676408 0 0 Z " fill="#3398AC" transform="translate(157,172)"/>
<path d="M0 0 C2 1 2 1 2 1 Z M-1 1 C-0.67 1.66 -0.34 2.32 0 3 C-0.77734375 4.7265625 -0.77734375 4.7265625 -1.9375 6.625 C-2.618125 7.73875 -3.29875 8.8525 -4 10 C-4.99 10 -5.98 10 -7 10 C-5.02 7.03 -3.04 4.06 -1 1 Z " fill="#1680A0" transform="translate(42,154)"/>
<path d="M0 0 C0 0.66 0 1.32 0 2 C-2.40545638 3.20272819 -3.94996953 3.10071472 -6.625 3.0625 C-7.85089844 3.04896484 -7.85089844 3.04896484 -9.1015625 3.03515625 C-10.04128906 3.01775391 -10.04128906 3.01775391 -11 3 C-11.33 2.34 -11.66 1.68 -12 1 C-10.56274129 0.83126522 -9.12518162 0.66509263 -7.6875 0.5 C-6.88699219 0.4071875 -6.08648437 0.314375 -5.26171875 0.21875 C-3 0 -3 0 0 0 Z " fill="#23839F" transform="translate(188,149)"/>
<path d="M0 0 C2.64 0 5.28 0 8 0 C4.87567603 2.52349243 1.61939504 4.27256146 -2 6 C-1.34 4.02 -0.68 2.04 0 0 Z " fill="#0C6982" transform="translate(82,74)"/>
<path d="M0 0 C0.66 0.33 1.32 0.66 2 1 C2 1.99 2 2.98 2 4 C-0.375 6.0625 -0.375 6.0625 -3 8 C-3.66 8.66 -4.32 9.32 -5 10 C-5.33 9.01 -5.66 8.02 -6 7 C-5.071875 6.1028125 -5.071875 6.1028125 -4.125 5.1875 C-1.86323046 2.99188856 -1.86323046 2.99188856 0 0 Z " fill="#11839F" transform="translate(133,35)"/>
<path d="M0 0 C0 0.99 0 1.98 0 3 C-3.63 3 -7.26 3 -11 3 C-7.75987532 -0.24012468 -4.46544827 0 0 0 Z " fill="#0C6C8C" transform="translate(202,15)"/>
<path d="M0 0 C1.65 0 3.3 0 5 0 C3.15182241 2.77226639 2.03011599 3.86825386 -0.625 5.6875 C-1.25664063 6.12449219 -1.88828125 6.56148438 -2.5390625 7.01171875 C-3.02117187 7.33785156 -3.50328125 7.66398438 -4 8 C-4 7.01 -4 6.02 -4 5 C-3.01 4.34 -2.02 3.68 -1 3 C-0.67 2.01 -0.34 1.02 0 0 Z " fill="#108BAA" transform="translate(70,1)"/>
<path d="M0 0 C2 2 2 2 2 6 C0.02 6 -1.96 6 -4 6 C-2.68 4.02 -1.36 2.04 0 0 Z " fill="#389AB6" transform="translate(180,143)"/>
<path d="M0 0 C1.67542976 0.28604898 3.34385343 0.61781233 5 1 C5 1.66 5 2.32 5 3 C0.71 3 -3.58 3 -8 3 C-8 2.67 -8 2.34 -8 2 C-6.865625 1.855625 -5.73125 1.71125 -4.5625 1.5625 C-1.19222799 1.38828522 -1.19222799 1.38828522 0 0 Z " fill="#2989A8" transform="translate(10,137)"/>
<path d="M0 0 C1.98 0.99 1.98 0.99 4 2 C4 4.31 4 6.62 4 9 C3.34 9 2.68 9 2 9 C2 7.35 2 5.7 2 4 C1.34 4 0.68 4 0 4 C0 2.68 0 1.36 0 0 Z " fill="#2183A1" transform="translate(143,119)"/>
<path d="M0 0 C2.64 0 5.28 0 8 0 C7.34 1.32 6.68 2.64 6 4 C5.01 4 4.02 4 3 4 C1.3125 2 1.3125 2 0 0 Z " fill="#086C8A" transform="translate(107,112)"/>
<path d="M0 0 C1.485 0.99 1.485 0.99 3 2 C3.1875 5.625 3.1875 5.625 3 9 C2.34 9 1.68 9 1 9 C-1.09230769 4.56923077 -1.09230769 4.56923077 -0.625 1.6875 C-0.41875 1.130625 -0.2125 0.57375 0 0 Z " fill="#06627C" transform="translate(157,84)"/>
<path d="M0 0 C1.5625 1.8125 1.5625 1.8125 3 4 C2.67 4.99 2.34 5.98 2 7 C0.35 6.67 -1.3 6.34 -3 6 C-2.01 4.02 -1.02 2.04 0 0 Z " fill="#1B849A" transform="translate(29,53)"/>
<path d="M0 0 C2.97 0 5.94 0 9 0 C8.67 0.66 8.34 1.32 8 2 C5.35139573 2.59355614 2.70802678 2.74209269 0 3 C0 2.01 0 1.02 0 0 Z " fill="#046687" transform="translate(184,176)"/>
<path d="M0 0 C0.66 0 1.32 0 2 0 C1.835 0.598125 1.67 1.19625 1.5 1.8125 C0.8885876 4.11344336 0.8885876 4.11344336 1 7 C-0.98 7.99 -0.98 7.99 -3 9 C-2.44271087 5.65626525 -1.64826111 2.96687001 0 0 Z " fill="#10829D" transform="translate(48,105)"/>
<path d="M0 0 C0.99 0 1.98 0 3 0 C3 1.98 3 3.96 3 6 C2.34 6 1.68 6 1 6 C1 5.34 1 4.68 1 4 C0.01 4 -0.98 4 -2 4 C-1.34 2.68 -0.68 1.36 0 0 Z " fill="#016079" transform="translate(199,106)"/>
<path d="M0 0 C1.65 0.33 3.3 0.66 5 1 C5.625 2.875 5.625 2.875 6 5 C5.34 5.66 4.68 6.32 4 7 C4 5.68 4 4.36 4 3 C2.35 3 0.7 3 -1 3 C-0.67 2.01 -0.34 1.02 0 0 Z " fill="#056179" transform="translate(116,70)"/>
<path d="M0 0 C0.33 0 0.66 0 1 0 C1 2.31 1 4.62 1 7 C-1.97 6.505 -1.97 6.505 -5 6 C-5 5.34 -5 4.68 -5 4 C-4.360625 3.71125 -3.72125 3.4225 -3.0625 3.125 C-0.84793921 2.17176549 -0.84793921 2.17176549 0 0 Z " fill="#309DC2" transform="translate(14,68)"/>
<path d="M0 0 C1.07765625 0.01804688 2.1553125 0.03609375 3.265625 0.0546875 C4.49539062 0.08949219 4.49539062 0.08949219 5.75 0.125 C5.75 0.455 5.75 0.785 5.75 1.125 C5.07453125 1.17398438 4.3990625 1.22296875 3.703125 1.2734375 C2.81109375 1.34820312 1.9190625 1.42296875 1 1.5 C0.11828125 1.56960937 -0.7634375 1.63921875 -1.671875 1.7109375 C-4.24066382 2.12350055 -6.00841015 2.83660957 -8.25 4.125 C-8.91 3.465 -9.57 2.805 -10.25 2.125 C-6.7733662 -0.01836161 -4.03770805 -0.08777626 0 0 Z " fill="#0C7B9B" transform="translate(34.25,41.875)"/>
<path d="M0 0 C0.66 0 1.32 0 2 0 C2.33 2.64 2.66 5.28 3 8 C2.01 8.33 1.02 8.66 0 9 C0 6.03 0 3.06 0 0 Z " fill="#248BA9" transform="translate(185,1)"/>
<path d="M0 0 C0.33 0.99 0.66 1.98 1 3 C-0.3125 4.5 -0.3125 4.5 -2 6 C-2.99 6 -3.98 6 -5 6 C-5 4.68 -5 3.36 -5 2 C-4.360625 1.855625 -3.72125 1.71125 -3.0625 1.5625 C-1.02454854 1.18992819 -1.02454854 1.18992819 0 0 Z " fill="#026782" transform="translate(39,79)"/>
<path d="M0 0 C2.64 0 5.28 0 8 0 C8 0.99 8 1.98 8 3 C5.6568787 2.74438677 3.32156597 2.40729228 1 2 C0.67 1.34 0.34 0.68 0 0 Z " fill="#1D80A0" transform="translate(82,97)"/>
<path d="M0 0 C0.66 0.33 1.32 0.66 2 1 C2 2.65 2 4.3 2 6 C1.01 5.67 0.02 5.34 -1 5 C-1 4.34 -1 3.68 -1 3 C-2.32 3.33 -3.64 3.66 -5 4 C-3.36587557 2.29159719 -2.13093906 1.06546953 0 0 Z " fill="#076781" transform="translate(118,94)"/>
<path d="M0 0 C2.0625 0.4375 2.0625 0.4375 4 1 C2.71937515 2.7074998 1.38232443 4.37373596 0 6 C-0.66 6 -1.32 6 -2 6 C-1.125 1.125 -1.125 1.125 0 0 Z " fill="#117E9B" transform="translate(32,79)"/>
<path d="M0 0 C1.98 0 3.96 0 6 0 C6 0.99 6 1.98 6 3 C4.02 3 2.04 3 0 3 C0 2.01 0 1.02 0 0 Z " fill="#2A9BB6" transform="translate(92,77)"/>
<path d="M0 0 C0.33 0 0.66 0 1 0 C1 1.65 1 3.3 1 5 C0.67 5 0.34 5 0 5 C0 3.35 0 1.7 0 0 Z M-5 6 C-3.68 6.33 -2.36 6.66 -1 7 C-2.32 8.32 -3.64 9.64 -5 11 C-5 9.35 -5 7.7 -5 6 Z " fill="#1B84A7" transform="translate(7,71)"/>
<path d="M0 0 C1.32 0 2.64 0 4 0 C4 1.32 4 2.64 4 4 C2.02 4 0.04 4 -2 4 C-1.34 2.68 -0.68 1.36 0 0 Z " fill="#1C87A2" transform="translate(172,29)"/>
<path d="M0 0 C1.65 0 3.3 0 5 0 C5 1.32 5 2.64 5 4 C4.01 4.33 3.02 4.66 2 5 C2 4.34 2 3.68 2 3 C1.34 3 0.68 3 0 3 C0 2.01 0 1.02 0 0 Z " fill="#1D7D99" transform="translate(43,1)"/>
<path d="M0 0 C1.32 1.32 2.64 2.64 4 4 C3.67 4.99 3.34 5.98 3 7 C3 6.34 3 5.68 3 5 C1.35 5.33 -0.3 5.66 -2 6 C-1.34 4.02 -0.68 2.04 0 0 Z " fill="#1685A1" transform="translate(9,57)"/>
<path d="M0 0 C2.31 0 4.62 0 7 0 C7 0.99 7 1.98 7 3 C4.0625 2.625 4.0625 2.625 1 2 C0.67 1.34 0.34 0.68 0 0 Z " fill="#1F859F" transform="translate(154,39)"/>
<path d="M0 0 C1.32 0 2.64 0 4 0 C4 1.32 4 2.64 4 4 C2.35 3.67 0.7 3.34 -1 3 C-0.67 2.01 -0.34 1.02 0 0 Z " fill="#04566C" transform="translate(82,36)"/>
<path d="M0 0 C0.66 0.99 1.32 1.98 2 3 C1.67 3.99 1.34 4.98 1 6 C-0.32 5.67 -1.64 5.34 -3 5 C-2.01 3.35 -1.02 1.7 0 0 Z " fill="#0A6B86" transform="translate(128,190)"/>
<path d="M0 0 C-1.28610235 2.5722047 -2.33393981 3.00974907 -5 4 C-7.25 3.625 -7.25 3.625 -9 3 C-5.55930376 0.70620251 -4.27709699 0 0 0 Z " fill="#2690AB" transform="translate(77,109)"/>
<path d="M0 0 C2.31 0 4.62 0 7 0 C6.01 0.66 5.02 1.32 4 2 C4 2.99 4 3.98 4 5 C3.01 5 2.02 5 1 5 C0.67 3.35 0.34 1.7 0 0 Z " fill="#065F75" transform="translate(122,82)"/>
<path d="M0 0 C0.66 0.33 1.32 0.66 2 1 C2 2.32 2 3.64 2 5 C0.35 4.67 -1.3 4.34 -3 4 C-2.01 2.68 -1.02 1.36 0 0 Z " fill="#06607F" transform="translate(44,70)"/>
<path d="M0 0 C3.3 0 6.6 0 10 0 C10 0.33 10 0.66 10 1 C8.9275 1.12375 7.855 1.2475 6.75 1.375 C3.62136385 1.89643936 1.66519576 2.40088254 -1 4 C-0.67 2.68 -0.34 1.36 0 0 Z " fill="#1B819E" transform="translate(77,42)"/>
</svg>
