<?xml version="1.0" encoding="UTF-8"?>
<svg version="1.1" xmlns="http://www.w3.org/2000/svg" width="198" height="204">
<path d="M0 0 C65.34 0 130.68 0 198 0 C198 67.32 198 134.64 198 204 C132.66 204 67.32 204 0 204 C0 136.68 0 69.36 0 0 Z " fill="#435A4D" transform="translate(0,0)"/>
<path d="M0 0 C65.34 0 130.68 0 198 0 C198 1.32 198 2.64 198 4 C132.66 4 67.32 4 0 4 C0 2.68 0 1.36 0 0 Z " fill="#0E0E0E" transform="translate(0,0)"/>
<path d="M0 0 C0.66 0.66 1.32 1.32 2 2 C1.8125 5.5 1.8125 5.5 1 9 C0.01 9.66 -0.98 10.32 -2 11 C-1.85957123 9.35369672 -1.71250671 7.70795821 -1.5625 6.0625 C-1.48128906 5.14597656 -1.40007813 4.22945312 -1.31640625 3.28515625 C-1 1 -1 1 0 0 Z " fill="#4E6559" transform="translate(19,163)"/>
<path d="M0 0 C2.31 0 4.62 0 7 0 C5 3 5 3 1.875 3.6875 C0.92625 3.790625 -0.0225 3.89375 -1 4 C-0.67 2.68 -0.34 1.36 0 0 Z " fill="#50695C" transform="translate(6,182)"/>
</svg>
