<?xml version="1.0" encoding="UTF-8"?>
<svg version="1.1" xmlns="http://www.w3.org/2000/svg" width="64" height="64">
<path d="M0 0 C6.36552849 5.03937672 12.64687635 11.08711767 14 19.375 C14.89588361 29.03629025 14.69685564 37.11455932 9 45.375 C8.278125 46.4475 7.55625 47.52 6.8125 48.625 C-1.02772724 56.29099997 -8.48246958 58.67806649 -19.21508789 58.68969727 C-28.96720521 58.49043384 -35.36998714 54.26558106 -42 47.375 C-48.17211768 40.16897428 -49.48293698 33.32767052 -49.3046875 23.91015625 C-48.49246802 14.4863277 -43.98598533 7.59977076 -37 1.375 C-25.26804052 -6.69674223 -12.41618509 -6.72543359 0 0 Z M-35 8.375 C-40.25340899 13.92860379 -43 20.74966493 -43 28.375 C-42.0101151 36.44874873 -38.30760713 43.0250641 -31.98828125 48.0859375 C-26.54655462 51.61397245 -20.43420609 53.15154211 -14 52.375 C-6.53855461 50.51517385 -0.40943861 47.88131839 4 41.375 C7.99007657 33.31172026 9.14730749 26.62102379 6.5625 17.9375 C3.93553797 11.12616275 -0.89077147 6.27058839 -7.5234375 3.2109375 C-17.39664433 -0.12165913 -26.86790589 1.7918762 -35 8.375 Z " fill="#2E2E2E" transform="translate(50,5.625)"/>
<path d="M0 0 C1.98 0 3.96 0 6 0 C5.67 1.32 5.34 2.64 5 4 C6.98 4 8.96 4 11 4 C11 4.99 11 5.98 11 7 C11.66 6.01 12.32 5.02 13 4 C15.3828125 3.70703125 15.3828125 3.70703125 18.125 3.8125 C19.03507812 3.83957031 19.94515625 3.86664062 20.8828125 3.89453125 C21.58148438 3.92933594 22.28015625 3.96414062 23 4 C23 4.66 23 5.32 23 6 C22 7 21 8 20 9 C18.96642853 10.64605826 17.95939668 12.30963442 17 14 C17.433125 14.55429687 17.86625 15.10859375 18.3125 15.6796875 C18.869375 16.40414062 19.42625 17.12859375 20 17.875 C20.556875 18.59429687 21.11375 19.31359375 21.6875 20.0546875 C23 22 23 22 23 24 C19.92553889 24.35474551 17.05872891 24.53698855 14 24 C11.4375 21 11.4375 21 10 18 C10.33 19.65 10.66 21.3 11 23 C6.71 23 2.42 23 -2 23 C-1.835 22.030625 -1.67 21.06125 -1.5 20.0625 C-0.73337432 14.68516842 -0.26929891 9.19210327 -2 4 C-1.34 4 -0.68 4 0 4 C0 2.68 0 1.36 0 0 Z " fill="#3B3B3B" transform="translate(22,21)"/>
<path d="M0 0 C1.98 0 3.96 0 6 0 C5.67 1.32 5.34 2.64 5 4 C6.98 4 8.96 4 11 4 C11 4.99 11 5.98 11 7 C11.66 6.01 12.32 5.02 13 4 C15.3828125 3.70703125 15.3828125 3.70703125 18.125 3.8125 C19.03507812 3.83957031 19.94515625 3.86664062 20.8828125 3.89453125 C21.58148438 3.92933594 22.28015625 3.96414062 23 4 C23 6 23 6 21.6875 7.375 C21.130625 7.91125 20.57375 8.4475 20 9 C19.6390625 9.68835937 19.278125 10.37671875 18.90625 11.0859375 C17 13 17 13 13.20703125 13.390625 C11.74167769 13.36410276 10.27658449 13.31649117 8.8125 13.25 C8.06291016 13.23195313 7.31332031 13.21390625 6.54101562 13.1953125 C4.6934629 13.14824109 2.84656841 13.07649766 1 13 C1 11.02 1 9.04 1 7 C0.01 6.67 -0.98 6.34 -2 6 C-2 5.34 -2 4.68 -2 4 C-1.34 4 -0.68 4 0 4 C0 2.68 0 1.36 0 0 Z " fill="#292929" transform="translate(22,21)"/>
<path d="M0 0 C-0.99 0.495 -0.99 0.495 -2 1 C-2.65555119 3.52733235 -2.65555119 3.52733235 -3 6 C-3.82242188 5.83242187 -4.64484375 5.66484375 -5.4921875 5.4921875 C-12.88783615 4.14286592 -18.76252828 3.87613697 -26 6 C-26.12375 5.195625 -26.2475 4.39125 -26.375 3.5625 C-26.684375 2.2940625 -26.684375 2.2940625 -27 1 C-27.66 0.67 -28.32 0.34 -29 0 C-19.46018489 -4.48932476 -9.53981511 -4.48932476 0 0 Z " fill="#D4D4D4" transform="translate(47,4)"/>
<path d="M0 0 C2.97 0 5.94 0 9 0 C8.01 0.495 8.01 0.495 7 1 C7 2.32 7 3.64 7 5 C7.99 5.33 8.98 5.66 10 6 C10 6.66 10 7.32 10 8 C5.71 8 1.42 8 -3 8 C-2.34 6.68 -1.68 5.36 -1 4 C-0.67 2.68 -0.34 1.36 0 0 Z " fill="#242424" transform="translate(23,36)"/>
<path d="M0 0 C0.33 0 0.66 0 1 0 C1 1.98 1 3.96 1 6 C5.95 6 10.9 6 16 6 C16.33 6.66 16.66 7.32 17 8 C11.72 8 6.44 8 1 8 C0.67 9.32 0.34 10.64 0 12 C-1.28571429 3.42857143 -1.28571429 3.42857143 0 0 Z " fill="#9C9C9C" transform="translate(22,28)"/>
<path d="M0 0 C3.3 0 6.6 0 10 0 C10 0.66 10 1.32 10 2 C8.7625 1.938125 7.525 1.87625 6.25 1.8125 C3.21788698 1.79637174 2.17751704 1.89348977 -0.5 3.5 C-0.995 3.995 -1.49 4.49 -2 5 C-1.34 3.35 -0.68 1.7 0 0 Z " fill="#656565" transform="translate(35,25)"/>
</svg>
