<?xml version="1.0" encoding="UTF-8"?>
<svg version="1.1" xmlns="http://www.w3.org/2000/svg" width="164" height="159">
<path d="M0 0 C54.12 0 108.24 0 164 0 C164 52.47 164 104.94 164 159 C109.88 159 55.76 159 0 159 C0 106.53 0 54.06 0 0 Z " fill="#A0373F" transform="translate(0,0)"/>
<path d="M0 0 C54.12 0 108.24 0 164 0 C164 52.47 164 104.94 164 159 C141.23 159 118.46 159 95 159 C94.01 157.35 93.02 155.7 92 154 C89.26622386 153.39606308 89.26622386 153.39606308 86.3125 153.6875 C85.31863281 153.73261719 84.32476562 153.77773437 83.30078125 153.82421875 C82.16189453 153.91123047 82.16189453 153.91123047 81 154 C84.28804981 151.08772731 86.59885603 149.50298788 91 149 C92.485 150.98 92.485 150.98 94 153 C95.32 151.68 96.64 150.36 98 149 C94.83754459 147.9458482 92.13051782 147.68724328 88.8125 147.4375 C87.72582031 147.35371094 86.63914062 147.26992187 85.51953125 147.18359375 C84.68808594 147.12300781 83.85664062 147.06242188 83 147 C83 146.67 83 146.34 83 146 C84.6396875 145.7834375 84.6396875 145.7834375 86.3125 145.5625 C89.93122987 145.11711896 89.93122987 145.11711896 93 144 C94.485 144.99 94.485 144.99 96 146 C99.14221967 145.68493373 99.14221967 145.68493373 102 145 C101.58284592 140.70061529 101.58284592 140.70061529 99.375 137.125 C97.16793868 133.71408705 98.3135307 130.93159688 99 127 C99 126.01 99 125.02 99 124 C97.515 123.505 97.515 123.505 96 123 C95.690625 122.01 95.38125 121.02 95.0625 120 C94.711875 119.01 94.36125 118.02 94 117 C92.06599083 115.93245166 92.06599083 115.93245166 90 116 C89.01 116.495 89.01 116.495 88 117 C87.80568235 119.04033535 87.61142512 121.08067656 87.41796875 123.12109375 C87 125 87 125 84.9375 126.5 C84.298125 126.665 83.65875 126.83 83 127 C83.33 126.34 83.66 125.68 84 125 C84.039992 123.00039988 84.04346799 120.99952758 84 119 C83.01 119 82.02 119 81 119 C81 117 81 117 82.64453125 115.34375 C83.35996094 114.7353125 84.07539062 114.126875 84.8125 113.5 C85.52019531 112.8915625 86.22789063 112.283125 86.95703125 111.65625 C89 110 89 110 92 108 C92 108.66 92 109.32 92 110 C92.99 110 93.98 110 95 110 C94.98839844 109.28972656 94.97679688 108.57945313 94.96484375 107.84765625 C94.95582031 106.92855469 94.94679688 106.00945312 94.9375 105.0625 C94.92589844 104.14597656 94.91429688 103.22945313 94.90234375 102.28515625 C95 100 95 100 96 99 C95.21625 99.04125 94.4325 99.0825 93.625 99.125 C91 99 91 99 89 97 C88.875 94.375 88.875 94.375 89 92 C90.32 91.34 91.64 90.68 93 90 C92.835 89.319375 92.67 88.63875 92.5 87.9375 C91.92286658 84.54684118 91.80565111 81.43349708 92 78 C94.97756075 75.02243925 98.29547727 75.26794292 102.37109375 74.7578125 C105.57209713 73.83508641 106.36576254 72.84809229 108 70 C108.495 68.515 108.495 68.515 109 67 C107.3603125 67.495 107.3603125 67.495 105.6875 68 C102 69 102 69 99 69 C99.66 68.34 100.32 67.68 101 67 C101 66.195625 101 65.39125 101 64.5625 C101 62 101 62 103 59 C103 58.34 103 57.68 103 57 C104.03125 57.103125 105.0625 57.20625 106.125 57.3125 C111.02438794 56.91738807 112.60576518 55.47137652 116 52 C117.05104383 50.36504293 118.05988318 48.70116376 119 47 C120.99059614 44.34587182 121.84088892 44.03431808 125.1875 43.3125 C126.5796875 43.1578125 126.5796875 43.1578125 128 43 C128 42.34 128 41.68 128 41 C127.01 41 126.02 41 125 41 C125 41.66 125 42.32 125 43 C123.515 42.505 123.515 42.505 122 42 C122.165 41.05125 122.33 40.1025 122.5 39.125 C123.0526635 36.19831099 123.0526635 36.19831099 123 34 C122.01 34 121.02 34 120 34 C119.7215625 35.11375 119.7215625 35.11375 119.4375 36.25 C117.88155826 39.22658419 117.3580015 39.52929552 114.5 40.9375 C111.47059345 42.47723969 111.11745271 42.71224086 109.75 46.0625 C109.37875 47.5165625 109.37875 47.5165625 109 49 C107.8125 50.8125 107.8125 50.8125 106 52 C102.3125 52.6875 102.3125 52.6875 99 53 C97.4375 51.4375 97.4375 51.4375 96 49 C96 45.5 96 45.5 97 42 C99.24240068 39.81509678 101.21597372 38.39201314 104 37 C104.46954261 33.95418731 104.46954261 33.95418731 104.625 30.4375 C104.69976562 29.23996094 104.77453125 28.04242187 104.8515625 26.80859375 C104.92503906 25.41833984 104.92503906 25.41833984 105 24 C102.4867038 24.82190348 102.4867038 24.82190348 100 26 C99.855625 26.78375 99.71125 27.5675 99.5625 28.375 C99 31 99 31 96.25 33.4375 C93 35 93 35 90.125 34.25 C89.073125 33.63125 89.073125 33.63125 88 33 C88 31.02 88 29.04 88 27 C86.35 26.67 84.7 26.34 83 26 C82.608125 26.78375 82.21625 27.5675 81.8125 28.375 C79.69036666 31.44843449 78.5759489 32.08522237 75 33 C71.6875 33.125 71.6875 33.125 69 33 C69.26041667 30.94921875 69.52083333 28.8984375 69.78125 26.84765625 C70.01959535 25.14458268 70.01959535 25.14458268 70 24 C67.88077873 25.08743288 67.88077873 25.08743288 66 27 C65.7497843 30.08365871 65.7497843 30.08365871 66 33 C65 34 65 34 61.6875 34.375 C55.64299655 34.35297995 50.37826826 31.50985852 45 29 C44.86328125 26.140625 44.86328125 26.140625 45 23 C47.96235532 19.95300596 51.00582829 18.3694303 55 17 C55.29562367 11.67829506 55.29562367 11.67829506 53 7 C49.93443402 6.26656572 49.93443402 6.26656572 47 6 C47 4.68 47 3.36 47 2 C32.15 2 17.3 2 2 2 C2 53.81 2 105.62 2 159 C1.34 159 0.68 159 0 159 C0 106.53 0 54.06 0 0 Z " fill="#9A343C" transform="translate(0,0)"/>
<path d="M0 0 C11.55 0 23.1 0 35 0 C32 7 32 7 30 8 C29.5359375 9.7325 29.5359375 9.7325 29.0625 11.5 C28.5365625 13.2325 28.5365625 13.2325 28 15 C27.01 15.33 26.02 15.66 25 16 C24.731875 16.66 24.46375 17.32 24.1875 18 C23.795625 18.66 23.40375 19.32 23 20 C19.875 20.75 19.875 20.75 17 21 C16.67 20.34 16.34 19.68 16 19 C15.01 19 14.02 19 13 19 C10.70810723 21.88599388 10.70810723 21.88599388 10.8125 25.5 C10 29 10 29 8.3828125 30.12109375 C6.4375 30.9375 6.4375 30.9375 3 32 C3.66 33.32 4.32 34.64 5 36 C5.99 35.34 6.98 34.68 8 34 C8.66 34 9.32 34 10 34 C10.495 33.505 10.495 33.505 11 33 C12.66617115 32.95936168 14.33388095 32.957279 16 33 C16.66 35.31 17.32 37.62 18 40 C19.65 40 21.3 40 23 40 C22.34 36.04 21.68 32.08 21 28 C22.093125 27.9175 23.18625 27.835 24.3125 27.75 C28.05198811 27.43101485 28.05198811 27.43101485 29.4375 24.9375 C31 23 31 23 32.953125 22.73828125 C34.97060931 22.74886246 36.98681158 22.86798764 39 23 C39.06058594 23.65226562 39.12117188 24.30453125 39.18359375 24.9765625 C39.63519991 29.68716217 40.14195039 34.34201638 41 39 C40.01 39.66 39.02 40.32 38 41 C36.768606 38.53721199 36.92840804 36.7204945 37 34 C34.03 33.505 34.03 33.505 31 33 C31.12568359 34.21236328 31.12568359 34.21236328 31.25390625 35.44921875 C31.35574219 36.51785156 31.45757812 37.58648437 31.5625 38.6875 C31.66691406 39.74324219 31.77132812 40.79898438 31.87890625 41.88671875 C31.99277552 44.81426086 31.70848415 47.17131144 31 50 C31.99 50 32.98 50 34 50 C34 51.98 34 53.96 34 56 C29.71 56 25.42 56 21 56 C20.5359375 58.1965625 20.5359375 58.1965625 20.0625 60.4375 C19.125 64.875 19.125 64.875 18 66 C17.6160917 69.35919762 17.95173325 70.90925851 19.5625 73.9375 C21.24523793 77.52246342 20.98560137 79.23679477 20 83 C13.125 84 13.125 84 12 84 C11.67 87.63 11.34 91.26 11 95 C10.34 95 9.68 95 9 95 C8.505 92.03 8.505 92.03 8 89 C6.99948405 95.00309571 6.03993777 101.11981331 8 107 C2.25 112 2.25 112 0 112 C0 75.04 0 38.08 0 0 Z " fill="#A63C43" transform="translate(2,2)"/>
<path d="M0 0 C54.12 0 108.24 0 164 0 C164 52.47 164 104.94 164 159 C163.34 159 162.68 159 162 159 C162 107.19 162 55.38 162 2 C141.21 2 120.42 2 99 2 C98.34 3.65 97.68 5.3 97 7 C96.34 7.66 95.68 8.32 95 9 C92.4375 8.75 92.4375 8.75 90 8 C89.505 7.01 89.505 7.01 89 6 C88.34 6 87.68 6 87 6 C86.34 10.29 85.68 14.58 85 19 C89.89562693 17.12297673 89.89562693 17.12297673 94 14 C96.625 14.375 96.625 14.375 99 15 C100.26503312 20.34125097 100.47689172 25.69043834 99 31 C96.25 33.75 96.25 33.75 93 35 C90.125 34.25 90.125 34.25 88 33 C88 31.02 88 29.04 88 27 C86.35 26.67 84.7 26.34 83 26 C82.608125 26.78375 82.21625 27.5675 81.8125 28.375 C79.69036666 31.44843449 78.5759489 32.08522237 75 33 C71.6875 33.125 71.6875 33.125 69 33 C69.26041667 30.94921875 69.52083333 28.8984375 69.78125 26.84765625 C70.01959535 25.14458268 70.01959535 25.14458268 70 24 C67.88077873 25.08743288 67.88077873 25.08743288 66 27 C65.7497843 30.08365871 65.7497843 30.08365871 66 33 C65 34 65 34 61.6875 34.375 C55.64299655 34.35297995 50.37826826 31.50985852 45 29 C44.86328125 26.140625 44.86328125 26.140625 45 23 C47.96235532 19.95300596 51.00582829 18.3694303 55 17 C55.29562367 11.67829506 55.29562367 11.67829506 53 7 C49.93443402 6.26656572 49.93443402 6.26656572 47 6 C47 4.68 47 3.36 47 2 C32.15 2 17.3 2 2 2 C2 53.81 2 105.62 2 159 C1.34 159 0.68 159 0 159 C0 106.53 0 54.06 0 0 Z " fill="#922F36" transform="translate(0,0)"/>
<path d="M0 0 C54.12 0 108.24 0 164 0 C164 52.47 164 104.94 164 159 C163.34 159 162.68 159 162 159 C162 107.19 162 55.38 162 2 C109.2 2 56.4 2 2 2 C2 53.81 2 105.62 2 159 C1.34 159 0.68 159 0 159 C0 106.53 0 54.06 0 0 Z " fill="#0E0E0E" transform="translate(0,0)"/>
<path d="M0 0 C0.33 0 0.66 0 1 0 C1.0484892 3.00633061 1.04432703 5.99462749 1 9 C1.00773437 9.87398437 1.01546875 10.74796875 1.0234375 11.6484375 C0.80563641 18.2418704 0.80563641 18.2418704 -1.58984375 20.49609375 C-2.84660791 21.27996506 -4.11615938 22.04375676 -5.3984375 22.78515625 C-7.40469862 24.06232752 -7.40469862 24.06232752 -8.125 27.625 C-8.32051172 30.94976086 -8.32051172 30.94976086 -6.5625 32.9375 C-5.7890625 33.4634375 -5.7890625 33.4634375 -5 34 C-0.03088634 32.87302957 -0.03088634 32.87302957 4 30 C4.226875 29.05125 4.45375 28.1025 4.6875 27.125 C6.10071391 23.76020499 6.46288568 23.45958139 9.5 21.875 C13.05141147 19.97245814 13.55942369 19.48139274 15 16 C15.99 15.67 16.98 15.34 18 15 C18.66 15.66 19.32 16.32 20 17 C19.34 17.99 18.68 18.98 18 20 C18 21.32 18 22.64 18 24 C18.66 24.33 19.32 24.66 20 25 C20 24.34 20 23.68 20 23 C20.99 23 21.98 23 23 23 C23.33 21.68 23.66 20.36 24 19 C24 20.98 24 22.96 24 25 C23.45730469 25.18175781 22.91460937 25.36351563 22.35546875 25.55078125 C21.64003906 25.80214844 20.92460938 26.05351563 20.1875 26.3125 C19.12595703 26.67794922 19.12595703 26.67794922 18.04296875 27.05078125 C14.8426767 28.53772383 13.34182353 30.3940401 11.625 33.4375 C9.6412255 36.56575979 8.23465217 38.14179556 5 40 C2.42688257 40.18797124 -0.02488925 40.12766579 -2.59765625 39.9453125 C-5.26233637 40.00597188 -6.73279325 40.64910083 -9 42 C-9.99 41.34 -10.98 40.68 -12 40 C-15.43230448 40.26393501 -15.43230448 40.26393501 -19 41 C-19.94875 41.144375 -20.8975 41.28875 -21.875 41.4375 C-22.57625 41.623125 -23.2775 41.80875 -24 42 C-24.33 42.66 -24.66 43.32 -25 44 C-26 43 -26 43 -26.25 39.6875 C-25.97594136 35.64513511 -25.30046322 35.06728429 -23 32 C-22.74936268 28.33285151 -22.74936268 28.33285151 -23 25 C-22.01 25 -21.02 25 -20 25 C-20.33 23.68 -20.66 22.36 -21 21 C-20.34 20.67 -19.68 20.34 -19 20 C-18.67 20.66 -18.34 21.32 -18 22 C-17.34 21.01 -16.68 20.02 -16 19 C-16.66 19 -17.32 19 -18 19 C-17.67 18.01 -17.34 17.02 -17 16 C-15.63875 16.0928125 -15.63875 16.0928125 -14.25 16.1875 C-11.07878709 16.19116572 -11.07878709 16.19116572 -8.6875 15 C-6.76785993 12.72487103 -6.70990419 11.82393675 -6.4375 8.9375 C-6.293125 7.638125 -6.14875 6.33875 -6 5 C-5.01 4.34 -4.02 3.68 -3 3 C-3 3.99 -3 4.98 -3 6 C-2.34 5.67 -1.68 5.34 -1 5 C-0.34444881 2.47266765 -0.34444881 2.47266765 0 0 Z " fill="#A93A43" transform="translate(105,18)"/>
<path d="M0 0 C5.28 0 10.56 0 16 0 C16.91145833 1.7578125 17.82291667 3.515625 18.734375 5.2734375 C20.24454985 7.33361431 21.66736988 8.02970428 24 9 C23.86722656 9.58007812 23.73445313 10.16015625 23.59765625 10.7578125 C22.78807892 14.33886259 22.01963125 17.86258124 21.5 21.5 C21.335 22.325 21.17 23.15 21 24 C20.34 24.33 19.68 24.66 19 25 C19.020625 25.969375 19.04125 26.93875 19.0625 27.9375 C19 31 19 31 18 32 C10.42101234 32.8579986 4.7953985 30.17118597 -2 27 C-2.13671875 24.140625 -2.13671875 24.140625 -2 21 C0.96235532 17.95300596 4.00582829 16.3694303 8 15 C8.29562367 9.67829506 8.29562367 9.67829506 6 5 C2.93443402 4.26656572 2.93443402 4.26656572 0 4 C0 2.68 0 1.36 0 0 Z " fill="#892B34" transform="translate(47,2)"/>
<path d="M0 0 C0.8971875 1.1446875 0.8971875 1.1446875 1.8125 2.3125 C3.84004112 4.91335259 3.84004112 4.91335259 5.75 6.6875 C7 8 7 8 7 10 C7.66 10 8.32 10 9 10 C9.9375 13.125 9.9375 13.125 10 17 C8.39522942 18.79434512 6.64717941 20.09236119 4.71484375 21.5234375 C2.27276481 23.62618429 1.81373192 25.94850531 1 29 C-0.1875 30.8125 -0.1875 30.8125 -2 32 C-5.6875 32.6875 -5.6875 32.6875 -9 33 C-10.5625 31.4375 -10.5625 31.4375 -12 29 C-12 25.5 -12 25.5 -11 22 C-8.75759932 19.81509678 -6.78402628 18.39201314 -4 17 C-3.64394667 14.87755867 -3.64394667 14.87755867 -3.5625 12.375 C-3.19419469 7.62795372 -2.12025965 4.2405193 0 0 Z " fill="#822A32" transform="translate(108,20)"/>
<path d="M0 0 C0.28571429 7.42857143 0.28571429 7.42857143 -2 11 C-3.65 11 -5.3 11 -7 11 C-6.67 11.86625 -6.34 12.7325 -6 13.625 C-5.01268659 16.95718275 -4.83579026 19.55159538 -5 23 C-6.98 23.33 -8.96 23.66 -11 24 C-11.33 21.36 -11.66 18.72 -12 16 C-13.65 16.33 -15.3 16.66 -17 17 C-17 17.66 -17 18.32 -17 19 C-17.598125 18.773125 -18.19625 18.54625 -18.8125 18.3125 C-19.534375 18.209375 -20.25625 18.10625 -21 18 C-22.77190909 19.35444301 -22.77190909 19.35444301 -24 21 C-24.66 19.02 -25.32 17.04 -26 15 C-24.865625 14.649375 -23.73125 14.29875 -22.5625 13.9375 C-20.60160095 13.19098853 -20.60160095 13.19098853 -19 12 C-18.16417032 8.56592619 -18.16417032 8.56592619 -18 5 C-16.4375 2.5625 -16.4375 2.5625 -15 1 C-13.68 1.33 -12.36 1.66 -11 2 C-11 2.66 -11 3.32 -11 4 C-9.02 3.67 -7.04 3.34 -5 3 C-5 2.34 -5 1.68 -5 1 C-3 0 -3 0 0 0 Z " fill="#8D3037" transform="translate(30,19)"/>
<path d="M0 0 C1.98 0 3.96 0 6 0 C6 6.93 6 13.86 6 21 C-0.27 21 -6.54 21 -13 21 C-15.2406015 15.39849624 -15.2406015 15.39849624 -14 11 C-13.938125 10.319375 -13.87625 9.63875 -13.8125 8.9375 C-12.49786646 5.80260463 -9.83298455 4.68773548 -7 3 C-6.67 6.96 -6.34 10.92 -6 15 C-4.68 14.67 -3.36 14.34 -2 14 C-1.93941406 13.15695313 -1.87882813 12.31390625 -1.81640625 11.4453125 C-1.73261719 10.34960938 -1.64882812 9.25390625 -1.5625 8.125 C-1.48128906 7.03445312 -1.40007812 5.94390625 -1.31640625 4.8203125 C-1 2 -1 2 0 0 Z " fill="#82272E" transform="translate(156,138)"/>
<path d="M0 0 C0.66 0 1.32 0 2 0 C3.20568053 4.67201205 3.09382426 9.21496292 3 14 C5.475 14.99 5.475 14.99 8 16 C8.19622241 20.21878192 7.80230168 23.17010894 6 27 C5.01 27 4.02 27 3 27 C2.79503906 27.91523437 2.59007813 28.83046875 2.37890625 29.7734375 C2.10949219 30.96195313 1.84007813 32.15046875 1.5625 33.375 C1.29566406 34.55835938 1.02882813 35.74171875 0.75390625 36.9609375 C0 40 0 40 -1 42 C0.32 42 1.64 42 3 42 C3.66 43.65 4.32 45.3 5 47 C4.01 47 3.02 47 2 47 C1.34 46.34 0.68 45.68 0 45 C-3.14958831 48.42346555 -3.56179109 51.44262737 -4 56 C-4.33 56 -4.66 56 -5 56 C-5.33 50.72 -5.66 45.44 -6 40 C-7.32 40 -8.64 40 -10 40 C-10 39.34 -10 38.68 -10 38 C-8.515 37.505 -8.515 37.505 -7 37 C-7.01353516 35.89591797 -7.01353516 35.89591797 -7.02734375 34.76953125 C-6.79149305 27.0069669 -6.79149305 27.0069669 -4.55078125 24.15625 C-1.68889521 22.02069946 0.36425331 21.06763263 3.9375 20.6875 C4.618125 20.790625 5.29875 20.89375 6 21 C6.33 19.68 6.66 18.36 7 17 C6.21625 16.896875 5.4325 16.79375 4.625 16.6875 C2 16 2 16 0 13 C-2.05003955 11.80767387 -2.05003955 11.80767387 -4 11 C-3.01 10.34 -2.02 9.68 -1 9 C-0.42006301 6.80545319 -0.42006301 6.80545319 -0.3125 4.375 C-0.24675781 3.55773438 -0.18101563 2.74046875 -0.11328125 1.8984375 C-0.07589844 1.27195313 -0.03851563 0.64546875 0 0 Z " fill="#AA3C41" transform="translate(67,55)"/>
<path d="M0 0 C0.66 1.32 1.32 2.64 2 4 C2.63808594 3.91621094 3.27617188 3.83242187 3.93359375 3.74609375 C4.75988281 3.64425781 5.58617188 3.54242188 6.4375 3.4375 C7.26121094 3.33308594 8.08492187 3.22867188 8.93359375 3.12109375 C9.95646484 3.06115234 9.95646484 3.06115234 11 3 C11.33 3.33 11.66 3.66 12 4 C11.64476021 10.39431616 11.64476021 10.39431616 8.9375 12.9375 C7.9784375 13.4634375 7.9784375 13.4634375 7 14 C7.433125 13.1646875 7.433125 13.1646875 7.875 12.3125 C9.0413253 9.91505355 10.0339881 7.48403061 11 5 C9.68647977 5.30818356 8.37420428 5.62167665 7.0625 5.9375 C6.33160156 6.11152344 5.60070312 6.28554687 4.84765625 6.46484375 C3.00030102 6.83887569 3.00030102 6.83887569 2 8 C1.71693766 10.54756104 1.55184214 13.09510022 1.37890625 15.65234375 C1 18 1 18 -1 20 C-4 20.3125 -4 20.3125 -7 20 C-7.66 19.01 -8.32 18.02 -9 17 C-10.32 17 -11.64 17 -13 17 C-13.28571429 8.42857143 -13.28571429 8.42857143 -11 5 C-9.68 5 -8.36 5 -7 5 C-6.731875 4.360625 -6.46375 3.72125 -6.1875 3.0625 C-4.60976325 0.32222039 -3.09853405 0 0 0 Z " fill="#B14048" transform="translate(62,130)"/>
<path d="M0 0 C1.85625 0.061875 1.85625 0.061875 3.75 0.125 C3.75 1.115 3.75 2.105 3.75 3.125 C5.173125 3.49625 5.173125 3.49625 6.625 3.875 C9.75 5.125 9.75 5.125 11.25 6.9375 C11.94884785 9.99495935 11.30583367 11.43765094 9.75 14.125 C7.625 15.4375 7.625 15.4375 5.75 16.125 C5.09 15.135 4.43 14.145 3.75 13.125 C3.09 12.465 2.43 11.805 1.75 11.125 C1.42 10.135 1.09 9.145 0.75 8.125 C-0.9 8.125 -2.55 8.125 -4.25 8.125 C-4.25 9.775 -4.25 11.425 -4.25 13.125 C-3.59 13.455 -2.93 13.785 -2.25 14.125 C-2.58 14.785 -2.91 15.445 -3.25 16.125 C-3.91 16.125 -4.57 16.125 -5.25 16.125 C-5.25 17.115 -5.25 18.105 -5.25 19.125 C-7.56 19.125 -9.87 19.125 -12.25 19.125 C-11.67655063 16.25775314 -11.3885485 15.2635485 -9.25 13.125 C-8.94463181 10.29816303 -8.87131672 7.49775954 -8.7890625 4.65625 C-8.25 2.125 -8.25 2.125 -6.4765625 0.7890625 C-4.17810893 0.1035588 -2.39015199 -0.07967173 0 0 Z " fill="#8A2C34" transform="translate(103.25,77.875)"/>
<path d="M0 0 C2.00841268 0.01421885 4.01537247 0.13420475 6.01953125 0.265625 C6.34953125 1.585625 6.67953125 2.905625 7.01953125 4.265625 C8.99953125 4.265625 10.97953125 4.265625 13.01953125 4.265625 C13.64453125 7.140625 13.64453125 7.140625 14.01953125 10.265625 C11.01335856 13.27179769 8.19571527 12.86147816 4.01953125 13.265625 C3.68953125 14.255625 3.35953125 15.245625 3.01953125 16.265625 C2.68953125 15.605625 2.35953125 14.945625 2.01953125 14.265625 C-3.06350561 14.15241644 -3.06350561 14.15241644 -7.98046875 15.265625 C-8.01785156 16.02488281 -8.05523437 16.78414062 -8.09375 17.56640625 C-8.15949219 18.56027344 -8.22523437 19.55414063 -8.29296875 20.578125 C-8.35097656 21.56425781 -8.40898438 22.55039063 -8.46875 23.56640625 C-9.04209589 26.59069641 -9.73285389 27.29535079 -11.98046875 29.265625 C-12.31046875 30.255625 -12.64046875 31.245625 -12.98046875 32.265625 C-11.33046875 32.265625 -9.68046875 32.265625 -7.98046875 32.265625 C-8.97046875 32.925625 -9.96046875 33.585625 -10.98046875 34.265625 C-12.30046875 33.605625 -13.62046875 32.945625 -14.98046875 32.265625 C-14.98046875 30.615625 -14.98046875 28.965625 -14.98046875 27.265625 C-13.66046875 26.605625 -12.34046875 25.945625 -10.98046875 25.265625 C-11.14546875 24.585 -11.31046875 23.904375 -11.48046875 23.203125 C-12.05760217 19.81246618 -12.17481764 16.69912208 -11.98046875 13.265625 C-9.002908 10.28806425 -5.68499148 10.53356792 -1.609375 10.0234375 C1.59162838 9.10071141 2.38529379 8.11371729 4.01953125 5.265625 C4.34953125 4.275625 4.67953125 3.285625 5.01953125 2.265625 C3.92640625 2.595625 2.83328125 2.925625 1.70703125 3.265625 C-1.98046875 4.265625 -1.98046875 4.265625 -4.98046875 4.265625 C-3.72152968 1.74774686 -2.88459378 0.38688832 0 0 Z " fill="#913037" transform="translate(103.98046875,64.734375)"/>
<path d="M0 0 C4.23686665 0.89049189 7.30041239 2.79447661 11 5 C10.66012094 8.85196273 9.42406312 11.76380122 6.87109375 14.703125 C2.90092222 17.45489316 -2.27242455 17.76072087 -7 18 C-8 17 -8 17 -8.09765625 15.15234375 C-8.06510417 13.1015625 -8.03255208 11.05078125 -8 9 C-7.236875 9 -6.47375 9 -5.6875 9 C-2.8993117 8.29819851 -2.8993117 8.29819851 -2 6.15234375 C-1.25331349 4.11690505 -0.58484471 2.08737258 0 0 Z " fill="#C14A50" transform="translate(42,5)"/>
<path d="M0 0 C0.99 0 1.98 0 3 0 C3 1.65 3 3.3 3 5 C7.455 5.99 7.455 5.99 12 7 C10.02 7.99 10.02 7.99 8 9 C8 10.32 8 11.64 8 13 C10.475 13.495 10.475 13.495 13 14 C13 14.66 13 15.32 13 16 C9.7 15.67 6.4 15.34 3 15 C2.67 15.99 2.34 16.98 2 18 C-2.55737263 17.56179109 -5.57653445 17.14958831 -9 14 C-8.67 12.35 -8.34 10.7 -8 9 C-5.69 8.34 -3.38 7.68 -1 7 C-0.67 4.69 -0.34 2.38 0 0 Z " fill="#C34B57" transform="translate(67,27)"/>
<path d="M0 0 C0.66 0.66 1.32 1.32 2 2 C1.625 5.625 1.625 5.625 1 9 C0.67 9 0.34 9 0 9 C0 6.03 0 3.06 0 0 Z M-19 9 C-12.73 9 -6.46 9 0 9 C-2.02383389 14.05958473 -2.86006134 14.97077659 -7 18 C-8.0173873 18.98230498 -9.02596117 19.97469597 -10 21 C-11.175625 20.2265625 -11.175625 20.2265625 -12.375 19.4375 C-13.24125 18.963125 -14.1075 18.48875 -15 18 C-15.99 18.495 -15.99 18.495 -17 19 C-17.12375 18.195625 -17.2475 17.39125 -17.375 16.5625 C-17.684375 15.2940625 -17.684375 15.2940625 -18 14 C-18.66 13.67 -19.32 13.34 -20 13 C-19.67 11.68 -19.34 10.36 -19 9 Z " fill="#8E2A35" transform="translate(54,120)"/>
<path d="M0 0 C2.96875 0.0234375 2.96875 0.0234375 6.5 0.375 C7.6653125 0.48585937 8.830625 0.59671875 10.03125 0.7109375 C11.0109375 0.80632813 11.990625 0.90171875 13 1 C13.66 1 14.32 1 15 1 C15 3.97 15 6.94 15 10 C13.42274653 10.70133599 11.83788667 11.385583 10.25 12.0625 C9.36828125 12.44535156 8.4865625 12.82820313 7.578125 13.22265625 C4.84743691 14.04600008 3.63098653 13.9773992 1 13 C0.92652344 11.93458984 0.92652344 11.93458984 0.8515625 10.84765625 C0.73941406 9.46900391 0.73941406 9.46900391 0.625 8.0625 C0.55539063 7.14597656 0.48578125 6.22945312 0.4140625 5.28515625 C0.27742187 4.53105469 0.14078125 3.77695312 0 3 C-0.66 2.67 -1.32 2.34 -2 2 C-1.34 1.34 -0.68 0.68 0 0 Z " fill="#862932" transform="translate(147,53)"/>
<path d="M0 0 C0.33 0 0.66 0 1 0 C1 8.25 1 16.5 1 25 C-1.64 25 -4.28 25 -7 25 C-6.88628503 22.70774565 -6.75869036 20.41617612 -6.625 18.125 C-6.55539063 16.84882813 -6.48578125 15.57265625 -6.4140625 14.2578125 C-6 11 -6 11 -4 9 C-3.67 7.845 -3.34 6.69 -3 5.5 C-2 2 -2 2 0 0 Z " fill="#77252C" transform="translate(161,12)"/>
<path d="M0 0 C0.042721 1.66611905 0.04063832 3.33382885 0 5 C-1.86353201 6.86353201 -4.49837601 6.40484072 -6.9921875 6.62109375 C-9.30715407 6.92253842 -9.30715407 6.92253842 -12 9 C-13.5 7.625 -13.5 7.625 -15 6 C-15 5.34 -15 4.68 -15 4 C-15.66 4 -16.32 4 -17 4 C-16.67 1.69 -16.34 -0.62 -16 -3 C-9.30403958 -4.43484866 -5.79424351 -3.59058175 0 0 Z " fill="#792129" transform="translate(31,139)"/>
<path d="M0 0 C0.28993995 4.03982999 0.45026463 7.96880722 0 12 C-2.5 14.75 -2.5 14.75 -5 17 C-5.44986438 19.79974418 -5.24197586 22.14468483 -5 25 C-5.99 25.33 -6.98 25.66 -8 26 C-8 18.08 -8 10.16 -8 2 C-3 0 -3 0 0 0 Z " fill="#7C2D2D" transform="translate(10,123)"/>
<path d="M0 0 C2.0625 0.4375 2.0625 0.4375 4 1 C3.8863485 3.62594784 3.75960946 6.25011547 3.625 8.875 C3.5940625 9.62136719 3.563125 10.36773437 3.53125 11.13671875 C3.2265625 16.7734375 3.2265625 16.7734375 1 19 C-0.32 19 -1.64 19 -3 19 C-3.19477739 17.37585622 -3.38059458 15.75063577 -3.5625 14.125 C-3.66691406 13.22007813 -3.77132813 12.31515625 -3.87890625 11.3828125 C-4 9 -4 9 -3 7 C-2.34 7 -1.68 7 -1 7 C-1.020625 6.030625 -1.04125 5.06125 -1.0625 4.0625 C-1 1 -1 1 0 0 Z M6 0 C9.125 -0.1875 9.125 -0.1875 12 0 C11.01 1.485 11.01 1.485 10 3 C9.75944532 5.05709596 9.75944532 5.05709596 9.875 7.1875 C9.91625 8.445625 9.9575 9.70375 10 11 C8 8 8 8 8 6 C7.01 6 6.02 6 5 6 C4.67 5.01 4.34 4.02 4 3 C4.66 2.01 5.32 1.02 6 0 Z " fill="#802A2F" transform="translate(26,59)"/>
<path d="M0 0 C5.42838303 0.43427064 8.90881514 1.32253046 13 5 C13.73653475 7.94763755 13.56998511 10.73523021 13.375 13.75 C13.34792969 14.54277344 13.32085937 15.33554688 13.29296875 16.15234375 C13.22247273 18.10273366 13.11485499 20.05171901 13 22 C12.34 22.33 11.68 22.66 11 23 C8.93559469 18.8160335 8.9097332 15.79364129 9.375 11.1875 C9.48585938 10.02605469 9.59671875 8.86460938 9.7109375 7.66796875 C9.80632813 6.78753906 9.90171875 5.90710938 10 5 C8.02 4.34 6.04 3.68 4 3 C3.86722656 3.89203125 3.73445313 4.7840625 3.59765625 5.703125 C3.42105469 6.87359375 3.24445312 8.0440625 3.0625 9.25 C2.88847656 10.41015625 2.71445312 11.5703125 2.53515625 12.765625 C2.1272264 15.23106961 1.66098697 17.59424562 1 20 C0.67 20 0.34 20 0 20 C-0.19421438 17.04196565 -0.38066186 14.08379837 -0.5625 11.125 C-0.61857422 10.28324219 -0.67464844 9.44148438 -0.73242188 8.57421875 C-0.78076172 7.76855469 -0.82910156 6.96289062 -0.87890625 6.1328125 C-0.9260376 5.38918457 -0.97316895 4.64555664 -1.02172852 3.87939453 C-1 2 -1 2 0 0 Z " fill="#8B3237" transform="translate(22,84)"/>
<path d="M0 0 C5.28 0 10.56 0 16 0 C16 0.66 16 1.32 16 2 C13.69 2 11.38 2 9 2 C8.34 3.32 7.68 4.64 7 6 C6.67 5.01 6.34 4.02 6 3 C5.01 3 4.02 3 3 3 C2.67 4.98 2.34 6.96 2 9 C1.34 9 0.68 9 0 9 C0 12.96 0 16.92 0 21 C1.32 21.33 2.64 21.66 4 22 C2.35 22 0.7 22 -1 22 C-3.13473279 18.17527042 -4.58103112 15.41583654 -4 11 C-3.36959957 9.64914193 -2.69748583 8.31747324 -2 7 C-1.34 4.69 -0.68 2.38 0 0 Z M7 6 C8.41778293 8.83556587 7.86257622 10.9908706 7.5625 14.125 C7.46066406 15.22070312 7.35882812 16.31640625 7.25390625 17.4453125 C7.17011719 18.28835937 7.08632813 19.13140625 7 20 C6.34 19.67 5.68 19.34 5 19 C5.14033111 17.02043559 5.2874123 15.04134859 5.4375 13.0625 C5.51871094 11.96035156 5.59992187 10.85820313 5.68359375 9.72265625 C6 7 6 7 7 6 Z " fill="#93323A" transform="translate(23,57)"/>
<path d="M0 0 C0.99 1.32 1.98 2.64 3 4 C3.53625 3.71125 4.0725 3.4225 4.625 3.125 C7.35280484 1.83288192 10.12612718 0.91441408 13 0 C13.93423645 3.01031744 14.04449911 3.86650268 13 7 C10.69 7 8.38 7 6 7 C5.34 9.31 4.68 11.62 4 14 C3.67 13.01 3.34 12.02 3 11 C1.35 11 -0.3 11 -2 11 C-1.85957123 9.35369672 -1.71250671 7.70795821 -1.5625 6.0625 C-1.48128906 5.14597656 -1.40007813 4.22945312 -1.31640625 3.28515625 C-1 1 -1 1 0 0 Z " fill="#7B252A" transform="translate(16,22)"/>
<path d="M0 0 C0.99 0 1.98 0 3 0 C3.09038099 5.15171623 2.84681133 9.91913204 2 15 C-0.31 14.67 -2.62 14.34 -5 14 C-5 12.68 -5 11.36 -5 10 C-5.66 10 -6.32 10 -7 10 C-5.32127275 6.03209924 -2.91722926 3.13068506 0 0 Z " fill="#742227" transform="translate(95,15)"/>
<path d="M0 0 C4.23686665 0.89049189 7.30041239 2.79447661 11 5 C10.55530671 10.03985731 8.28656638 12.37634988 5 16 C5 12.40577503 6.14981068 11.00655764 8 8 C8 7.34 8 6.68 8 6 C4.00987629 6.55989303 1.4744948 7.75669768 -1.8125 10.0625 C-2.60269531 10.61035156 -3.39289062 11.15820312 -4.20703125 11.72265625 C-4.79871094 12.14417969 -5.39039063 12.56570312 -6 13 C-5.67 14.65 -5.34 16.3 -5 18 C-5.99 17.67 -6.98 17.34 -8 17 C-8 14.36 -8 11.72 -8 9 C-7.236875 9 -6.47375 9 -5.6875 9 C-2.8993117 8.29819851 -2.8993117 8.29819851 -2 6.15234375 C-1.25331349 4.11690505 -0.58484471 2.08737258 0 0 Z " fill="#B6464C" transform="translate(42,5)"/>
<path d="M0 0 C0.66 0 1.32 0 2 0 C3.20568053 4.67201205 3.09382426 9.21496292 3 14 C5.475 14.99 5.475 14.99 8 16 C8.125 18.875 8.125 18.875 8 22 C7.34 22.66 6.68 23.32 6 24 C2.375 23.625 2.375 23.625 -1 23 C1 21 1 21 3.625 20.875 C4.40875 20.91625 5.1925 20.9575 6 21 C6.33 19.68 6.66 18.36 7 17 C6.21625 16.896875 5.4325 16.79375 4.625 16.6875 C2 16 2 16 0 13 C-2.05003955 11.80767387 -2.05003955 11.80767387 -4 11 C-3.01 10.34 -2.02 9.68 -1 9 C-0.42006301 6.80545319 -0.42006301 6.80545319 -0.3125 4.375 C-0.21388672 3.14910156 -0.21388672 3.14910156 -0.11328125 1.8984375 C-0.05720703 0.95871094 -0.05720703 0.95871094 0 0 Z M-2 23 C-2 25.86346629 -2.34317608 28.31860606 -2.875 31.125 C-3.03742187 32.01445313 -3.19984375 32.90390625 -3.3671875 33.8203125 C-3.57601562 34.53960937 -3.78484375 35.25890625 -4 36 C-4.99 36.495 -4.99 36.495 -6 37 C-6.10815225 35.23050905 -6.18566083 33.45912513 -6.25 31.6875 C-6.29640625 30.70136719 -6.3428125 29.71523437 -6.390625 28.69921875 C-6 26 -6 26 -3.984375 24.14453125 C-3.00210938 23.57798828 -3.00210938 23.57798828 -2 23 Z " fill="#B94649" transform="translate(67,55)"/>
<path d="M0 0 C2.84614024 2.84614024 2.45579076 5.80369142 2.625 9.625 C2.66367187 10.33140625 2.70234375 11.0378125 2.7421875 11.765625 C2.83647724 13.50998524 2.91932891 15.25495691 3 17 C3.66 17 4.32 17 5 17 C5 18.65 5 20.3 5 22 C4.34 22 3.68 22 3 22 C2.01 19.69 1.02 17.38 0 15 C-0.99 15.495 -0.99 15.495 -2 16 C-1.67 17.98 -1.34 19.96 -1 22 C-1.66 22 -2.32 22 -3 22 C-6.2458708 16.59021533 -6.32418886 11.03241591 -5 5 C-4.34 5.33 -3.68 5.66 -3 6 C-3 7.98 -3 9.96 -3 12 C-2.34 12 -1.68 12 -1 12 C-1.01160156 11.21753906 -1.02320313 10.43507813 -1.03515625 9.62890625 C-1.04417969 8.61699219 -1.05320312 7.60507813 -1.0625 6.5625 C-1.07410156 5.55316406 -1.08570313 4.54382813 -1.09765625 3.50390625 C-1 1 -1 1 0 0 Z " fill="#8B3338" transform="translate(14,85)"/>
<path d="M0 0 C-0.3125 1.9375 -0.3125 1.9375 -1 4 C-4 5 -4 5 -7 4 C-7.06058594 4.75925781 -7.12117188 5.51851563 -7.18359375 6.30078125 C-7.26738281 7.29464844 -7.35117188 8.28851563 -7.4375 9.3125 C-7.51871094 10.29863281 -7.59992188 11.28476563 -7.68359375 12.30078125 C-8 15 -8 15 -9 18 C-10.65 18 -12.3 18 -14 18 C-13.42655063 15.13275314 -13.1385485 14.1385485 -11 12 C-10.69463181 9.17316303 -10.62131672 6.37275954 -10.5390625 3.53125 C-10 1 -10 1 -8.1640625 -0.3671875 C-5.21526734 -1.22947056 -2.95788623 -0.67224687 0 0 Z " fill="#79262A" transform="translate(105,79)"/>
<path d="M0 0 C2.4375 0.25 2.4375 0.25 5 1 C5.66 1.99 6.32 2.98 7 4 C7.556875 3.319375 8.11375 2.63875 8.6875 1.9375 C9.8321875 0.9784375 9.8321875 0.9784375 11 0 C13.75 0.25 13.75 0.25 16 1 C15.01 1.66 14.02 2.32 13 3 C13.185625 3.969375 13.37125 4.93875 13.5625 5.9375 C13.706875 6.948125 13.85125 7.95875 14 9 C13 10 13 10 10.625 10.375 C9.75875 10.25125 8.8925 10.1275 8 10 C7.62875 9.175 7.2575 8.35 6.875 7.5 C6.25625 6.675 5.6375 5.85 5 5 C1.3042424 4.53322527 -2.2929887 4.71678182 -6 5 C-5.195625 4.360625 -4.39125 3.72125 -3.5625 3.0625 C-1.7249496 1.59396498 -1.7249496 1.59396498 0 0 Z " fill="#95303E" transform="translate(87,149)"/>
<path d="M0 0 C0.33 0 0.66 0 1 0 C1 2.64 1 5.28 1 8 C0.01 8.33 -0.98 8.66 -2 9 C-2 9.66 -2 10.32 -2 11 C-4.31 10.34 -6.62 9.68 -9 9 C-9.625 6.625 -9.625 6.625 -10 4 C-7.24072656 1.24072656 -4.78845948 1.48216757 -1 1 C-0.67 0.67 -0.34 0.34 0 0 Z " fill="#6E2229" transform="translate(132,45)"/>
<path d="M0 0 C0.33 0.66 0.66 1.32 1 2 C1.66 2 2.32 2 3 2 C3.33 2.99 3.66 3.98 4 5 C2.2984375 5.7425 2.2984375 5.7425 0.5625 6.5 C-1.42289731 7.51360801 -1.42289731 7.51360801 -3 9 C-3.6202387 10.98133434 -3.6202387 10.98133434 -3.6875 13.125 C-3.8421875 15.043125 -3.8421875 15.043125 -4 17 C-6.0625 18.5 -6.0625 18.5 -8 19 C-7.67 18.34 -7.34 17.68 -7 17 C-6.960008 15.00039988 -6.95653201 12.99952758 -7 11 C-7.99 11 -8.98 11 -10 11 C-10 10.34 -10 9.68 -10 9 C-8.3203125 7.34375 -8.3203125 7.34375 -6.125 5.5 C-4.00964496 3.71066742 -1.95980876 1.95980876 0 0 Z " fill="#8E2934" transform="translate(91,108)"/>
<path d="M0 0 C1.22589844 0.15275391 1.22589844 0.15275391 2.4765625 0.30859375 C3.41628906 0.43427734 3.41628906 0.43427734 4.375 0.5625 C4.375 2.8725 4.375 5.1825 4.375 7.5625 C2.395 8.5525 2.395 8.5525 0.375 9.5625 C0.00375 8.6034375 0.00375 8.6034375 -0.375 7.625 C-1.44062433 5.37508459 -1.44062433 5.37508459 -3.75 4.8125 C-4.36875 4.73 -4.9875 4.6475 -5.625 4.5625 C-5.955 3.2425 -6.285 1.9225 -6.625 0.5625 C-4.10446405 -0.69776798 -2.7707902 -0.35624445 0 0 Z " fill="#A63A4A" transform="translate(114.625,77.4375)"/>
<path d="M0 0 C0.33 0 0.66 0 1 0 C1 3.3 1 6.6 1 10 C0.67 10 0.34 10 0 10 C0 6.7 0 3.4 0 0 Z M-3 11 C-2.34 11.33 -1.68 11.66 -1 12 C-2.2375 12.804375 -2.2375 12.804375 -3.5 13.625 C-6.33951208 15.80271869 -6.33951208 15.80271869 -6.3125 19.25 C-6.209375 20.1575 -6.10625 21.065 -6 22 C-4.02 22 -2.04 22 0 22 C0.268125 21.360625 0.53625 20.72125 0.8125 20.0625 C2 18 2 18 5 17 C4.65198447 19.57531492 4.29035995 21.54832896 2.875 23.75 C0.08261228 25.61159182 -2.71073498 25.68969198 -6 26 C-7.5625 24.4375 -7.5625 24.4375 -9 22 C-9 18.5 -9 18.5 -8 15 C-5.4375 12.5625 -5.4375 12.5625 -3 11 Z " fill="#933134" transform="translate(105,27)"/>
<path d="M0 0 C-0.33 1.65 -0.66 3.3 -1 5 C-1.66 5 -2.32 5 -3 5 C-3.433125 6.2065625 -3.433125 6.2065625 -3.875 7.4375 C-5 10 -5 10 -7 11 C-9.21785132 9.24420104 -9.93677554 8.31612229 -10.5 5.5 C-10 3 -10 3 -7.8125 1.1875 C-4.92808899 -0.03036243 -3.08954177 -0.26481787 0 0 Z " fill="#7D2527" transform="translate(71,11)"/>
<path d="M0 0 C1.8125 1.3125 1.8125 1.3125 3 3 C3 3.99 3 4.98 3 6 C-1.29 6 -5.58 6 -10 6 C-10 4.68 -10 3.36 -10 2 C-6.53030166 0.41385219 -3.8262394 -0.50345255 0 0 Z " fill="#A83E49" transform="translate(92,153)"/>
<path d="M0 0 C3.96 0 7.92 0 12 0 C10 5 10 5 8 7 C5.1617638 6.78167414 3.46577913 6.35334968 1.1875 4.625 C0 3 0 3 0 0 Z " fill="#883232" transform="translate(87,2)"/>
<path d="M0 0 C3.3 0 6.6 0 10 0 C10 5 10 5 8.625 6.8125 C7 8 7 8 5 8 C5 7.34 5 6.68 5 6 C3.68 5.67 2.36 5.34 1 5 C0.67 3.35 0.34 1.7 0 0 Z " fill="#812A2E" transform="translate(112,2)"/>
<path d="M0 0 C2.97 0.99 5.94 1.98 9 3 C4.703125 8.46875 4.703125 8.46875 3 10 C1.68 10 0.36 10 -1 10 C-1.125 2.25 -1.125 2.25 0 0 Z " fill="#AE3F4D" transform="translate(87,8)"/>
<path d="M0 0 C1.2065625 0.0309375 1.2065625 0.0309375 2.4375 0.0625 C2.4375 1.3825 2.4375 2.7025 2.4375 4.0625 C3.0975 4.0625 3.7575 4.0625 4.4375 4.0625 C4.1075 5.3825 3.7775 6.7025 3.4375 8.0625 C0.94685112 8.74957555 -0.94136292 9.0625 -3.5625 9.0625 C-3.66015625 2.91015625 -3.66015625 2.91015625 -3.5625 1.0625 C-2.5625 0.0625 -2.5625 0.0625 0 0 Z " fill="#B84250" transform="translate(5.5625,20.9375)"/>
<path d="M0 0 C1.2065625 0.0309375 1.2065625 0.0309375 2.4375 0.0625 C2.7675 1.0525 3.0975 2.0425 3.4375 3.0625 C4.0975 3.7225 4.7575 4.3825 5.4375 5.0625 C4.4475 6.5475 4.4475 6.5475 3.4375 8.0625 C-0.1875 8.25 -0.1875 8.25 -3.5625 8.0625 C-3.60491723 5.72955225 -3.60342937 3.39547433 -3.5625 1.0625 C-2.5625 0.0625 -2.5625 0.0625 0 0 Z " fill="#BF4F58" transform="translate(46.5625,150.9375)"/>
<path d="M0 0 C-0.3196875 0.52207031 -0.639375 1.04414062 -0.96875 1.58203125 C-2.69170711 5.62184358 -2.46302521 9.85649163 -2.65625 14.19921875 C-2.7696875 15.12347656 -2.883125 16.04773438 -3 17 C-3.66 17.33 -4.32 17.66 -5 18 C-5.33 12.06 -5.66 6.12 -6 0 C-3.50907189 -1.24546405 -2.58919267 -0.7767578 0 0 Z " fill="#7C2126" transform="translate(27,86)"/>
<path d="M0 0 C0.99 0 1.98 0 3 0 C2.731875 0.495 2.46375 0.99 2.1875 1.5 C0.82334212 4.37191133 -0.24525951 7.30152785 -1.31640625 10.29296875 C-2 12 -2 12 -3 13 C-3.53329649 15.54100092 -3.96418343 18.09334021 -4.40234375 20.65234375 C-5 23 -5 23 -7 25 C-6.41747573 6.41747573 -6.41747573 6.41747573 0 0 Z " fill="#892D34" transform="translate(159,10)"/>
<path d="M0 0 C2.31 0 4.62 0 7 0 C4.25 6.875 4.25 6.875 2 8 C1.5978125 9.7015625 1.5978125 9.7015625 1.1875 11.4375 C0 15 0 15 -2.625 16.4375 C-3.40875 16.623125 -4.1925 16.80875 -5 17 C-3.82069255 14.64138511 -2.63597317 12.28650742 -1.4375 9.9375 C0.45159781 6.0771697 1.2714167 4.09678716 0 0 Z " fill="#B23F4B" transform="translate(30,2)"/>
<path d="M0 0 C2.64 0 5.28 0 8 0 C8.04254356 1.99954746 8.04080783 4.00041636 8 6 C7 7 7 7 4 7.125 C1 7 1 7 0 6 C-0.04080783 4.00041636 -0.04254356 1.99954746 0 0 Z " fill="#77211E" transform="translate(98,43)"/>
<path d="M0 0 C3.3 0.33 6.6 0.66 10 1 C6.67692308 6.78461538 6.67692308 6.78461538 3.25 7.875 C2.5075 7.91625 1.765 7.9575 1 8 C-0.35439668 5.29120665 -0.06501451 2.99066732 0 0 Z " fill="#682024" transform="translate(39,131)"/>
<path d="M0 0 C0.3327958 3.66075376 0.46170299 5.39500988 -1.8125 8.375 C-4 10 -4 10 -7 10 C-7 7.36 -7 4.72 -7 2 C-4.35261084 0.5393715 -3.10551666 0 0 0 Z " fill="#5F241F" transform="translate(9,127)"/>
<path d="M0 0 C0 3.96 0 7.92 0 12 C-1.32 12.33 -2.64 12.66 -4 13 C-5.1845131 9.44646071 -5.26641894 6.72986522 -5 3 C-3.37600669 0.7116458 -2.82814211 0 0 0 Z " fill="#AE3F47" transform="translate(162,83)"/>
<path d="M0 0 C3.3 0 6.6 0 10 0 C9.34 1.98 8.68 3.96 8 6 C6.35 6.33 4.7 6.66 3 7 C0 3.375 0 3.375 0 0 Z " fill="#B4454A" transform="translate(63,2)"/>
<path d="M0 0 C4.95 0.33 9.9 0.66 15 1 C13.02953918 4.94092164 11.27715536 7.12249773 8 10 C7.01 10 6.02 10 5 10 C4.67 9.34 4.34 8.68 4 8 C4.61875 7.731875 5.2375 7.46375 5.875 7.1875 C8.2995233 6.04443152 8.2995233 6.04443152 10 3 C5.545 2.01 5.545 2.01 1 1 C0.67 1.99 0.34 2.98 0 4 C0 2.68 0 1.36 0 0 Z " fill="#7C292E" transform="translate(38,130)"/>
<path d="M0 0 C1.32 0 2.64 0 4 0 C5.64686998 5.28731942 5.64686998 5.28731942 6 8 C4.8125 10 4.8125 10 3 11 C2.01 11 1.02 11 0 11 C0 7.37 0 3.74 0 0 Z " fill="#93282D" transform="translate(70,82)"/>
<path d="M0 0 C1.98 0 3.96 0 6 0 C6 0.33 6 0.66 6 1 C4.35 1 2.7 1 1 1 C1.33 1.886875 1.66 2.77375 2 3.6875 C2.91222143 6.70923347 3.18330958 8.88373706 3 12 C1.35 12 -0.3 12 -2 12 C-3.6442351 7.06729471 -2.18615592 4.45975807 0 0 Z " fill="#882933" transform="translate(22,29)"/>
<path d="M0 0 C1.4783226 2.95664519 1.06032783 5.74229737 1 9 C-1.97 8.505 -1.97 8.505 -5 8 C-5.33 6.35 -5.66 4.7 -6 3 C-2.25 0 -2.25 0 0 0 Z " fill="#7C2229" transform="translate(53,20)"/>
<path d="M0 0 C1.98 0.66 3.96 1.32 6 2 C6.042721 3.66611905 6.04063832 5.33382885 6 7 C4.13646799 8.86353201 1.50162399 8.40484072 -0.9921875 8.62109375 C-3.30715407 8.92253842 -3.30715407 8.92253842 -6 11 C-4.533292 7.13322435 -2.52798328 5.99014441 1 4 C1.33 3.34 1.66 2.68 2 2 C1.34 2 0.68 2 0 2 C0 1.34 0 0.68 0 0 Z " fill="#8C2E35" transform="translate(25,137)"/>
<path d="M0 0 C0.33 0.66 0.66 1.32 1 2 C1.66 2 2.32 2 3 2 C3.66 3.98 4.32 5.96 5 8 C4 9 4 9 2.15234375 9.09765625 C0.1015625 9.06510417 -1.94921875 9.03255208 -4 9 C-3.71125 8.443125 -3.4225 7.88625 -3.125 7.3125 C-1.9586747 4.91505355 -0.9660119 2.48403061 0 0 Z " fill="#B14449" transform="translate(86,136)"/>
<path d="M0 0 C0.99 0 1.98 0 3 0 C3 1.65 3 3.3 3 5 C7.455 5.99 7.455 5.99 12 7 C12 7.33 12 7.66 12 8 C10.87851563 7.94779297 10.87851563 7.94779297 9.734375 7.89453125 C8.25710937 7.85392578 8.25710937 7.85392578 6.75 7.8125 C5.77546875 7.77769531 4.8009375 7.74289063 3.796875 7.70703125 C0.58726001 8.04323394 -0.54497475 9.01058299 -3 11 C-5.75 10.6875 -5.75 10.6875 -8 10 C-8 9.67 -8 9.34 -8 9 C-5.69 8.34 -3.38 7.68 -1 7 C-0.67 4.69 -0.34 2.38 0 0 Z " fill="#B43C4A" transform="translate(67,27)"/>
<path d="M0 0 C1.79206547 0.14084796 3.58364917 0.28783701 5.375 0.4375 C6.87160156 0.55931641 6.87160156 0.55931641 8.3984375 0.68359375 C11 1 11 1 13 2 C13 2.66 13 3.32 13 4 C9.7 3.67 6.4 3.34 3 3 C2.67 3.99 2.34 4.98 2 6 C-0.3431213 5.74438677 -2.67843403 5.40729228 -5 5 C-5.33 4.34 -5.66 3.68 -6 3 C-5.195625 2.87625 -4.39125 2.7525 -3.5625 2.625 C-2.716875 2.41875 -1.87125 2.2125 -1 2 C-0.67 1.34 -0.34 0.68 0 0 Z " fill="#B4454D" transform="translate(67,39)"/>
<path d="M0 0 C1.98 0 3.96 0 6 0 C6.04254356 1.99954746 6.04080783 4.00041636 6 6 C5 7 5 7 2.4375 7.0625 C1.2309375 7.0315625 1.2309375 7.0315625 0 7 C-0.93423645 3.98968256 -1.04449911 3.13349732 0 0 Z " fill="#BF4F57" transform="translate(46,119)"/>
<path d="M0 0 C0.33 0 0.66 0 1 0 C1 2.97 1 5.94 1 9 C2.98 8.01 4.96 7.02 7 6 C6.875 7.8125 6.875 7.8125 6 10 C2.79116175 11.95320589 0.7794561 13 -3 13 C-2.01 8.71 -1.02 4.42 0 0 Z " fill="#9B3137" transform="translate(69,84)"/>
<path d="M0 0 C0.99 0.33 1.98 0.66 3 1 C3 3.64 3 6.28 3 9 C2.67 9 2.34 9 2 9 C1.67 7.35 1.34 5.7 1 4 C0.54625 4.804375 0.0925 5.60875 -0.375 6.4375 C-2 9 -2 9 -4 10 C-5.32 9.01 -6.64 8.02 -8 7 C-7.236875 6.773125 -6.47375 6.54625 -5.6875 6.3125 C-2.45263699 4.73268318 -1.58358642 3.16717283 0 0 Z " fill="#AE3941" transform="translate(83,25)"/>
<path d="M0 0 C2.64 0 5.28 0 8 0 C8.33 1.98 8.66 3.96 9 6 C5.535 7.485 5.535 7.485 2 9 C2 6 2 6 4 3.8125 C4.66 3.214375 5.32 2.61625 6 2 C4.02 2.66 2.04 3.32 0 4 C0 2.68 0 1.36 0 0 Z " fill="#B63F4D" transform="translate(23,146)"/>
<path d="M0 0 C0.66 0.33 1.32 0.66 2 1 C2 2.98 2 4.96 2 7 C2.99 7.33 3.98 7.66 5 8 C4 10 4 10 3 11 C3.28674418 13.00720923 3.61866701 15.0085944 4 17 C3.34 17 2.68 17 2 17 C-1.2458708 11.59021533 -1.32418886 6.03241591 0 0 Z " fill="#802F2F" transform="translate(9,90)"/>
<path d="M0 0 C0.99 0.33 1.98 0.66 3 1 C2.48923856 3.29842648 1.86166565 5.32549259 0.9375 7.5 C-0.23408229 10.17921926 -0.23408229 10.17921926 0 14 C-0.99 13.67 -1.98 13.34 -3 13 C-3.31563182 7.73946963 -2.66590937 4.55426184 0 0 Z M-2 10 C-1 12 -1 12 -1 12 Z " fill="#73272F" transform="translate(102,121)"/>
<path d="M0 0 C2.31 0 4.62 0 7 0 C7.33 1.98 7.66 3.96 8 6 C4.88742431 6 2.89234315 5.82638376 0 5 C0 3.35 0 1.7 0 0 Z " fill="#7D272E" transform="translate(110,69)"/>
<path d="M0 0 C5.75 -0.125 5.75 -0.125 8 1 C8 4.3 8 7.6 8 11 C3.45194365 11.17835515 0.1205746 10.99785435 -4 9 C-4 8.67 -4 8.34 -4 8 C-0.7 8 2.6 8 6 8 C6.33 6.02 6.66 4.04 7 2 C5.02 2 3.04 2 1 2 C0.67 1.34 0.34 0.68 0 0 Z " fill="#AF3F48" transform="translate(45,117)"/>
<path d="M0 0 C0.66 0 1.32 0 2 0 C2.33 0.66 2.66 1.32 3 2 C3.99 2.33 4.98 2.66 6 3 C5.6875 4.875 5.6875 4.875 5 7 C4.01 7.66 3.02 8.32 2 9 C1.01 8.67 0.02 8.34 -1 8 C-1.04241723 5.66705225 -1.04092937 3.33297433 -1 1 C-0.67 0.67 -0.34 0.34 0 0 Z " fill="#771D24" transform="translate(107,83)"/>
<path d="M0 0 C1.99954746 -0.04254356 4.00041636 -0.04080783 6 0 C7 1 7 1 7.25 3.4375 C7.1675 4.283125 7.085 5.12875 7 6 C6.01 6.66 5.02 7.32 4 8 C4.33 5.69 4.66 3.38 5 1 C4.01 1.495 4.01 1.495 3 2 C3 4.64 3 7.28 3 10 C2.01 10.495 2.01 10.495 1 11 C0.67 7.37 0.34 3.74 0 0 Z " fill="#943338" transform="translate(33,35)"/>
<path d="M0 0 C0.763125 0.20625 1.52625 0.4125 2.3125 0.625 C1.3225 1.285 0.3325 1.945 -0.6875 2.625 C-0.3575 4.605 -0.0275 6.585 0.3125 8.625 C-1.0075 8.955 -2.3275 9.285 -3.6875 9.625 C-5.45212683 6.53690305 -5.6875 5.39187864 -5.6875 1.625 C-2.6875 -0.375 -2.6875 -0.375 0 0 Z " fill="#76252D" transform="translate(100.6875,149.375)"/>
<path d="M0 0 C1.27875 0.103125 2.5575 0.20625 3.875 0.3125 C4.95394531 0.39951172 4.95394531 0.39951172 6.0546875 0.48828125 C8 1 8 1 10 4 C10.25 7.0625 10.25 7.0625 10 10 C9.34 10.66 8.68 11.32 8 12 C7.67 9.03 7.34 6.06 7 3 C4.36 3 1.72 3 -1 3 C-0.67 2.01 -0.34 1.02 0 0 Z " fill="#AC3F4B" transform="translate(141,32)"/>
<path d="M0 0 C0.66 0 1.32 0 2 0 C3.20568053 4.67201205 3.09382426 9.21496292 3 14 C0.69 13.34 -1.62 12.68 -4 12 C-3.51917969 11.60167969 -3.03835937 11.20335938 -2.54296875 10.79296875 C-0.62608175 8.56549753 -0.52258357 7.21165331 -0.3125 4.3125 C-0.21388672 3.10013672 -0.21388672 3.10013672 -0.11328125 1.86328125 C-0.07589844 1.24839844 -0.03851563 0.63351563 0 0 Z " fill="#AD3E46" transform="translate(67,55)"/>
<path d="M0 0 C1.4540625 0.0309375 1.4540625 0.0309375 2.9375 0.0625 C3.2675 0.7225 3.5975 1.3825 3.9375 2.0625 C2.7309375 2.43375 2.7309375 2.43375 1.5 2.8125 C-1.233581 3.78488859 -1.233581 3.78488859 -1.875 6.1875 C-1.9678125 7.115625 -1.9678125 7.115625 -2.0625 8.0625 C-3.0525 8.0625 -4.0425 8.0625 -5.0625 8.0625 C-4.046875 0.08258929 -4.046875 0.08258929 0 0 Z " fill="#C24953" transform="translate(53.0625,68.9375)"/>
<path d="M0 0 C0.33 0 0.66 0 1 0 C1.08114106 1.77007714 1.13925505 3.54122098 1.1875 5.3125 C1.22230469 6.29863281 1.25710937 7.28476563 1.29296875 8.30078125 C0.95364922 11.42704515 0.33729723 12.03667033 -2 14 C-3.19027984 16.59915538 -3.19027984 16.59915538 -4 19 C-5.0625 17.1875 -5.0625 17.1875 -6 15 C-5 12 -5 12 -3 10.3125 C-0.12030347 6.98285089 -0.28955016 4.34325233 0 0 Z " fill="#903438" transform="translate(10,127)"/>
<path d="M0 0 C2.31 0 4.62 0 7 0 C7 1.98 7 3.96 7 6 C2.25 5.125 2.25 5.125 0 4 C0 2.68 0 1.36 0 0 Z " fill="#B33E51" transform="translate(111,79)"/>
<path d="M0 0 C1.32 0 2.64 0 4 0 C4.33 2.64 4.66 5.28 5 8 C4 8 3 8 2 8 C2 9.65 2 11.3 2 13 C-0.20914 9.68629 -0.22481553 8.6553979 -0.125 4.8125 C-0.10695313 3.91144531 -0.08890625 3.01039062 -0.0703125 2.08203125 C-0.04710938 1.39496094 -0.02390625 0.70789063 0 0 Z " fill="#A43A47" transform="translate(30,65)"/>
<path d="M0 0 C0.90105469 0.01804688 1.80210937 0.03609375 2.73046875 0.0546875 C3.41753906 0.07789063 4.10460937 0.10109375 4.8125 0.125 C4.4825 0.785 4.1525 1.445 3.8125 2.125 C2.719375 2.24875 1.62625 2.3725 0.5 2.5 C-3.56910315 3.1896785 -4.60761267 4.04898049 -7.1875 7.125 C-7.5175 7.125 -7.8475 7.125 -8.1875 7.125 C-8.375 4.75 -8.375 4.75 -8.1875 2.125 C-4.87379 -0.08414 -3.8428979 -0.09981553 0 0 Z " fill="#882832" transform="translate(127.1875,44.875)"/>
<path d="M0 0 C1.43088528 2.86177057 0.59991697 4.93375773 0 8 C-0.66 8 -1.32 8 -2 8 C-1.125 1.125 -1.125 1.125 0 0 Z M-8 9 C-6.35 9 -4.7 9 -3 9 C-3 9.66 -3 10.32 -3 11 C-3.99 11.66 -4.98 12.32 -6 13 C-5.67 14.65 -5.34 16.3 -5 18 C-5.99 17.67 -6.98 17.34 -8 17 C-8 14.36 -8 11.72 -8 9 Z " fill="#AC4047" transform="translate(42,5)"/>
<path d="M0 0 C0.99 0 1.98 0 3 0 C3 0.66 3 1.32 3 2 C3.66 2 4.32 2 5 2 C4.3125 3.9375 4.3125 3.9375 3 6 C0.375 6.75 0.375 6.75 -2 7 C-1.125 1.125 -1.125 1.125 0 0 Z " fill="#671922" transform="translate(22,137)"/>
<path d="M0 0 C3 1 3 1 4.1875 3.0625 C4.455625 3.701875 4.72375 4.34125 5 5 C3.71034824 6.37562854 2.37310707 7.70766393 1 9 C0.34 9 -0.32 9 -1 9 C-1.09765625 2.84765625 -1.09765625 2.84765625 -1 1 C-0.67 0.67 -0.34 0.34 0 0 Z " fill="#BF4D56" transform="translate(3,104)"/>
<path d="M0 0 C0.66 0.33 1.32 0.66 2 1 C2 6.28 2 11.56 2 17 C-1.1301299 10.73974019 -1.0316328 6.76292615 0 0 Z " fill="#762A30" transform="translate(32,90)"/>
<path d="M0 0 C0 0.99 0 1.98 0 3 C-2.97 3 -5.94 3 -9 3 C-9 2.01 -9 1.02 -9 0 C-5.93109813 -1.53445094 -3.29905734 -0.54984289 0 0 Z " fill="#B44754" transform="translate(92,155)"/>
<path d="M0 0 C1.90608098 3.21182149 2.22266247 5.53882603 2.125 9.25 C2.10695313 10.14203125 2.08890625 11.0340625 2.0703125 11.953125 C2.04710938 12.62859375 2.02390625 13.3040625 2 14 C1.01 14.495 1.01 14.495 0 15 C-1.23689062 12.52621876 -1.13310087 10.82084683 -1.125 8.0625 C-1.12757812 7.18722656 -1.13015625 6.31195313 -1.1328125 5.41015625 C-1 3 -1 3 0 0 Z " fill="#B44248" transform="translate(78,84)"/>
<path d="M0 0 C0 0.66 0 1.32 0 2 C-0.66 2 -1.32 2 -2 2 C-2.33 2.99 -2.66 3.98 -3 5 C-3.598125 4.79375 -4.19625 4.5875 -4.8125 4.375 C-7.28450846 3.69328085 -7.28450846 3.69328085 -10 6 C-10 3 -10 3 -8.375 1.3125 C-5.41801336 -0.32162419 -3.32820054 -0.22692276 0 0 Z " fill="#B84855" transform="translate(12,61)"/>
<path d="M0 0 C0.99 0.66 1.98 1.32 3 2 C2.34 3.32 1.68 4.64 1 6 C0.34 6 -0.32 6 -1 6 C-1 6.99 -1 7.98 -1 9 C-1.66 9 -2.32 9 -3 9 C-3.1875 5.625 -3.1875 5.625 -3 2 C-2.01 1.34 -1.02 0.68 0 0 Z " fill="#722221" transform="translate(66,11)"/>
<path d="M0 0 C0.33 1.32 0.66 2.64 1 4 C-2.28804981 6.91227269 -4.59885603 8.49701212 -9 9 C-7.74160485 5.22481455 -6.44096192 4.80240862 -3 3 C-2.01 2.67 -1.02 2.34 0 2 C0 1.34 0 0.68 0 0 Z " fill="#B2414F" transform="translate(57,102)"/>
<path d="M0 0 C0.99 0 1.98 0 3 0 C3 2.64 3 5.28 3 8 C1.68 7.67 0.36 7.34 -1 7 C-1.04254356 5.00045254 -1.04080783 2.99958364 -1 1 C-0.67 0.67 -0.34 0.34 0 0 Z " fill="#8B272B" transform="translate(159,70)"/>
<path d="M0 0 C0.66 0 1.32 0 2 0 C1.6852134 3.46265264 1.29733158 5.58585959 -0.75 8.4375 C-3 10 -3 10 -5.75 9.75 C-6.4925 9.5025 -7.235 9.255 -8 9 C-5 7 -5 7 -3 7 C-3 6.34 -3 5.68 -3 5 C-2.34 4.67 -1.68 4.34 -1 4 C-0.34786708 1.97536745 -0.34786708 1.97536745 0 0 Z " fill="#812C36" transform="translate(133,49)"/>
<path d="M0 0 C0.33 0 0.66 0 1 0 C1 2.64 1 5.28 1 8 C-3.455 8.495 -3.455 8.495 -8 9 C-8 7.02 -8 5.04 -8 3 C-8.66 2.67 -9.32 2.34 -10 2 C-9.01 2 -8.02 2 -7 2 C-7 3.32 -7 4.64 -7 6 C-4.69 6.33 -2.38 6.66 0 7 C0 4.69 0 2.38 0 0 Z " fill="#872B31" transform="translate(97,23)"/>
<path d="M0 0 C3.3 0.99 6.6 1.98 10 3 C10 3.66 10 4.32 10 5 C4.06 4.34 -1.88 3.68 -8 3 C-8 2.67 -8 2.34 -8 2 C-6.865625 1.855625 -5.73125 1.71125 -4.5625 1.5625 C-1.19222799 1.38828522 -1.19222799 1.38828522 0 0 Z " fill="#932E37" transform="translate(91,144)"/>
<path d="M0 0 C0.99 0 1.98 0 3 0 C3 2.64 3 5.28 3 8 C1.68 7.34 0.36 6.68 -1 6 C-1.042721 4.33388095 -1.04063832 2.66617115 -1 1 C-0.67 0.67 -0.34 0.34 0 0 Z " fill="#6F151E" transform="translate(159,139)"/>
<path d="M0 0 C0.66 1.65 1.32 3.3 2 5 C1.01 5 0.02 5 -1 5 C-1.66 4.34 -2.32 3.68 -3 3 C-4.32 4.32 -5.64 5.64 -7 7 C-7.1875 4.625 -7.1875 4.625 -7 2 C-4 0 -4 0 0 0 Z " fill="#B84B4D" transform="translate(70,97)"/>
<path d="M0 0 C1.5 1.0625 1.5 1.0625 3 3 C3.3125 6.5625 3.3125 6.5625 3 10 C2.34 10.66 1.68 11.32 1 12 C0.01 11.67 -0.98 11.34 -2 11 C-1.34 10.01 -0.68 9.02 0 8 C0.24055468 5.94290404 0.24055468 5.94290404 0.125 3.8125 C0.08375 2.554375 0.0425 1.29625 0 0 Z " fill="#9C313F" transform="translate(53,7)"/>
<path d="M0 0 C1.65 0 3.3 0 5 0 C4.67 1.65 4.34 3.3 4 5 C2.68 5.33 1.36 5.66 0 6 C0 4.02 0 2.04 0 0 Z " fill="#BD4557" transform="translate(87,11)"/>
<path d="M0 0 C0.66 0.33 1.32 0.66 2 1 C2 3.64 2 6.28 2 9 C1.01 9.33 0.02 9.66 -1 10 C-1.02689216 8.52093108 -1.04634621 7.04172517 -1.0625 5.5625 C-1.07410156 4.73878906 -1.08570312 3.91507813 -1.09765625 3.06640625 C-1 1 -1 1 0 0 Z " fill="#892730" transform="translate(3,139)"/>
<path d="M0 0 C1.65 0 3.3 0 5 0 C5.33 1.32 5.66 2.64 6 4 C3.69 4 1.38 4 -1 4 C-0.67 2.68 -0.34 1.36 0 0 Z " fill="#701D25" transform="translate(59,29)"/>
<path d="M0 0 C1.32 0 2.64 0 4 0 C3.67 1.65 3.34 3.3 3 5 C1.35 4.67 -0.3 4.34 -2 4 C-1.34 2.68 -0.68 1.36 0 0 Z " fill="#B4505A" transform="translate(91,117)"/>
<path d="M0 0 C1.2065625 0.0309375 1.2065625 0.0309375 2.4375 0.0625 C1.87378586 3.33204202 0.93787734 4.88825883 -1.5625 7.0625 C-2.2225 5.0825 -2.8825 3.1025 -3.5625 1.0625 C-2.5625 0.0625 -2.5625 0.0625 0 0 Z " fill="#862933" transform="translate(7.5625,32.9375)"/>
<path d="M0 0 C0.33 0 0.66 0 1 0 C1 2.97 1 5.94 1 9 C0.01 9 -0.98 9 -2 9 C-2.125 5.625 -2.125 5.625 -2 2 C-1.34 1.34 -0.68 0.68 0 0 Z " fill="#BF4852" transform="translate(161,84)"/>
<path d="M0 0 C1.65 0 3.3 0 5 0 C4.34 0.66 3.68 1.32 3 2 C2.97624074 3.9931567 2.97624074 3.9931567 3.375 6.125 C3.684375 8.043125 3.684375 8.043125 4 10 C3.01 10.495 3.01 10.495 2 11 C1.34 7.37 0.68 3.74 0 0 Z " fill="#98353E" transform="translate(23,30)"/>
<path d="M0 0 C0.99 0 1.98 0 3 0 C4.24386556 3.73159669 3.77811718 6.18015204 3 10 C2.01 10.495 2.01 10.495 1 11 C0.67 7.37 0.34 3.74 0 0 Z " fill="#842B36" transform="translate(21,93)"/>
<path d="M0 0 C0.33 0.99 0.66 1.98 1 3 C-5.625 6 -5.625 6 -9 6 C-5.67692308 1.2 -5.67692308 1.2 -2.25 0.1875 C-1.5075 0.125625 -0.765 0.06375 0 0 Z " fill="#A33B44" transform="translate(140,92)"/>
<path d="M0 0 C0.66 0 1.32 0 2 0 C2.33 2.97 2.66 5.94 3 9 C2.01 9.33 1.02 9.66 0 10 C0 6.7 0 3.4 0 0 Z " fill="#8C2227" transform="translate(71,83)"/>
<path d="M0 0 C2.0625 0.4375 2.0625 0.4375 4 1 C3.34 1 2.68 1 2 1 C1.34 4.3 0.68 7.6 0 11 C-0.33 11 -0.66 11 -1 11 C-1.02688151 9.35425434 -1.04634123 7.70838587 -1.0625 6.0625 C-1.07410156 5.14597656 -1.08570313 4.22945313 -1.09765625 3.28515625 C-1 1 -1 1 0 0 Z " fill="#913137" transform="translate(42,61)"/>
<path d="M0 0 C1.32 0.33 2.64 0.66 4 1 C4.042721 2.66611905 4.04063832 4.33382885 4 6 C3 7 3 7 0.4375 7.0625 C-0.7690625 7.0315625 -0.7690625 7.0315625 -2 7 C-0.68 5.35 0.64 3.7 2 2 C1.34 2 0.68 2 0 2 C0 1.34 0 0.68 0 0 Z " fill="#7C252C" transform="translate(25,137)"/>
<path d="M0 0 C0.99 1.485 0.99 1.485 2 3 C4.05003955 4.19232613 4.05003955 4.19232613 6 5 C6 6.98 6 8.96 6 11 C3.66475218 8.74259377 1.81294927 6.7194239 0 4 C0 2.68 0 1.36 0 0 Z " fill="#88323B" transform="translate(98,131)"/>
<path d="M0 0 C0.66 0 1.32 0 2 0 C2 1.98 2 3.96 2 6 C0.68 6 -0.64 6 -2 6 C-2 3 -2 3 0 0 Z " fill="#631A1E" transform="translate(95,16)"/>
<path d="M0 0 C0.99 0.33 1.98 0.66 3 1 C3.99 1 4.98 1 6 1 C4.3545622 2.68762851 2.68711423 4.3540349 1 6 C0.67 6 0.34 6 0 6 C0 4.02 0 2.04 0 0 Z " fill="#AA3043" transform="translate(147,74)"/>
<path d="M0 0 C0.66 0.33 1.32 0.66 2 1 C2 1.66 2 2.32 2 3 C1.01 3.495 1.01 3.495 0 4 C-0.33 4.99 -0.66 5.98 -1 7 C1.31 7 3.62 7 6 7 C6 7.33 6 7.66 6 8 C3.36 8 0.72 8 -2 8 C-2.125 5.125 -2.125 5.125 -2 2 C-1.34 1.34 -0.68 0.68 0 0 Z " fill="#802330" transform="translate(59,26)"/>
<path d="M0 0 C0.66 0.66 1.32 1.32 2 2 C1.625 4.625 1.625 4.625 1 7 C1.66 7 2.32 7 3 7 C3.33 6.34 3.66 5.68 4 5 C4 6.32 4 7.64 4 9 C2.0625 8.6875 2.0625 8.6875 0 8 C-1.09658936 4.71023192 -0.79953138 3.28696233 0 0 Z " fill="#A83C4B" transform="translate(114,18)"/>
<path d="M0 0 C0.66 0 1.32 0 2 0 C2.33 0.66 2.66 1.32 3 2 C3.99 2.66 4.98 3.32 6 4 C4.02 4 2.04 4 0 4 C-0.33 5.32 -0.66 6.64 -1 8 C-1.04241723 5.66705225 -1.04092937 3.33297433 -1 1 C-0.67 0.67 -0.34 0.34 0 0 Z " fill="#81202A" transform="translate(107,83)"/>
<path d="M0 0 C0.33 1.32 0.66 2.64 1 4 C-1.35968744 6.09749995 -2.54616994 6.96905704 -5.75 7.1875 C-6.86375 7.0946875 -6.86375 7.0946875 -8 7 C-7.67 6.01 -7.34 5.02 -7 4 C-5.35 4 -3.7 4 -2 4 C-1.34 2.68 -0.68 1.36 0 0 Z " fill="#A93C4A" transform="translate(10,25)"/>
<path d="M0 0 C0.99 0 1.98 0 3 0 C3 1.65 3 3.3 3 5 C2.01 5.495 2.01 5.495 1 6 C0.34 5.67 -0.32 5.34 -1 5 C-0.67 3.35 -0.34 1.7 0 0 Z " fill="#721922" transform="translate(50,23)"/>
<path d="M0 0 C1.98 0 3.96 0 6 0 C5.34 1.32 4.68 2.64 4 4 C2.68 3.67 1.36 3.34 0 3 C0 2.01 0 1.02 0 0 Z " fill="#712922" transform="translate(90,2)"/>
<path d="M0 0 C2.64 0 5.28 0 8 0 C8 0.33 8 0.66 8 1 C6.02 1.33 4.04 1.66 2 2 C1.67 3.65 1.34 5.3 1 7 C0.34 6.34 -0.32 5.68 -1 5 C-0.625 2.375 -0.625 2.375 0 0 Z " fill="#B2434F" transform="translate(151,126)"/>
<path d="M0 0 C0.66 0 1.32 0 2 0 C2 1.98 2 3.96 2 6 C1.01 6.33 0.02 6.66 -1 7 C-1.04254356 5.00045254 -1.04080783 2.99958364 -1 1 C-0.67 0.67 -0.34 0.34 0 0 Z " fill="#AB4146" transform="translate(132,76)"/>
<path d="M0 0 C0.33 1.32 0.66 2.64 1 4 C-2.75 5.125 -2.75 5.125 -5 4 C-5 3.34 -5 2.68 -5 2 C-2 0 -2 0 0 0 Z " fill="#BE4D58" transform="translate(85,53)"/>
<path d="M0 0 C4.455 0.99 4.455 0.99 9 2 C9 2.33 9 2.66 9 3 C5.7 3 2.4 3 -1 3 C-0.67 2.01 -0.34 1.02 0 0 Z " fill="#BA464E" transform="translate(70,32)"/>
<path d="M0 0 C2.97 0.495 2.97 0.495 6 1 C6 1.66 6 2.32 6 3 C3.36 3 0.72 3 -2 3 C-1.34 2.01 -0.68 1.02 0 0 Z " fill="#932F32" transform="translate(27,156)"/>
<path d="M0 0 C0.99 0.33 1.98 0.66 3 1 C2.01 1.495 2.01 1.495 1 2 C1.33 3.98 1.66 5.96 2 8 C1.01 8 0.02 8 -1 8 C-1.04241723 5.66705225 -1.04092937 3.33297433 -1 1 C-0.67 0.67 -0.34 0.34 0 0 Z " fill="#B74950" transform="translate(44,151)"/>
<path d="M0 0 C0.99 0.33 1.98 0.66 3 1 C0.525 4.465 0.525 4.465 -2 8 C-2 4.79604584 -1.25664978 2.90600261 0 0 Z " fill="#7E2D32" transform="translate(102,121)"/>
<path d="M0 0 C0.99 0 1.98 0 3 0 C2.67 1.98 2.34 3.96 2 6 C2.66 6.33 3.32 6.66 4 7 C2.68 6.67 1.36 6.34 0 6 C0 4.02 0 2.04 0 0 Z " fill="#A44248" transform="translate(26,115)"/>
<path d="M0 0 C0.66 0 1.32 0 2 0 C2.33 1.98 2.66 3.96 3 6 C2.01 6 1.02 6 0 6 C-0.66 5.34 -1.32 4.68 -2 4 C-1.34 2.68 -0.68 1.36 0 0 Z " fill="#87242D" transform="translate(131,143)"/>
<path d="M0 0 C-0.33 1.32 -0.66 2.64 -1 4 C-2.65 4.33 -4.3 4.66 -6 5 C-4.61551018 2.23102035 -3.26099808 0 0 0 Z " fill="#883032" transform="translate(29,73)"/>
<path d="M0 0 C0.99 0.33 1.98 0.66 3 1 C3.33 2.98 3.66 4.96 4 7 C3.34 7 2.68 7 2 7 C0 5 0 5 -0.125 2.375 C-0.08375 1.59125 -0.0425 0.8075 0 0 Z " fill="#B13E4F" transform="translate(31,66)"/>
<path d="M0 0 C1.98 0 3.96 0 6 0 C5.67 0.99 5.34 1.98 5 3 C3.35 3 1.7 3 0 3 C0 2.01 0 1.02 0 0 Z " fill="#6B1A1C" transform="translate(114,2)"/>
</svg>
