<?xml version="1.0" encoding="UTF-8"?>
<svg version="1.1" xmlns="http://www.w3.org/2000/svg" width="200" height="204">
<path d="M0 0 C66 0 132 0 200 0 C200 67.32 200 134.64 200 204 C134 204 68 204 0 204 C0 136.68 0 69.36 0 0 Z " fill="#BACCDB" transform="translate(0,0)"/>
<path d="M0 0 C66 0 132 0 200 0 C200 67.32 200 134.64 200 204 C134 204 68 204 0 204 C0 203.01 0 202.02 0 201 C65.67 201 131.34 201 199 201 C199 135 199 69 199 1 C133.33 1 67.66 1 0 1 C0 0.67 0 0.34 0 0 Z " fill="#0E0E0E" transform="translate(0,0)"/>
</svg>
